<svg width="180" height="163" fill="none" xmlns="http://www.w3.org/2000/svg"><path d="M25.884 99.008c.093.025.142.05.146.073.018.015.015.07-.01.162a8.808 8.808 0 01-.151.44 18.047 18.047 0 00-.676 2.089c-.013.051-.051.069-.113.052-.062-.017-.086-.051-.072-.102.237-.886.216-1.588-.066-2.105-.28-.517-.86-.893-1.735-1.127l-4.837-1.296c-.66-.177-1.22-.123-1.684.161-.465.295-.823.911-1.075 1.85-.013.05-.051.068-.113.052-.062-.017-.086-.051-.072-.103.188-.7.329-1.391.423-2.073a3.6 3.6 0 01.098-.553.47.47 0 01.057-.15c.026-.016.076-.013.148.006.793.212 1.596-.086 2.41-.895.815-.82 1.528-1.832 2.139-3.038.62-1.203 1.048-2.242 1.282-3.118.078-.289.102-.525.074-.71-.014-.19-.123-.363-.325-.517-.199-.164-.53-.308-.994-.432-.02-.005-.022-.039-.006-.1.017-.063.035-.09.056-.085l7.356 1.97c.021.006.023.04.007.102-.017.062-.036.09-.056.084-.392-.105-.689-.151-.89-.139-.2.002-.355.065-.466.19-.1.128-.192.346-.275.655l-1.917 7.156c-.108.402-.157.67-.15.805.009.134.107.243.294.327.188.083.585.206 1.193.37zm-.432-8.895c.093-.35.135-.588.124-.712 0-.121-.07-.212-.209-.271-.136-.07-.425-.164-.868-.283l-.758-.203c-.309-.082-.538-.094-.686-.034-.146.049-.268.176-.367.382-.1.205-.255.6-.467 1.183a26.059 26.059 0 01-.988 2.204c-.42.87-.938 1.73-1.553 2.582-.604.854-1.227 1.427-1.868 1.719l4.203 1.126c.474.127.786.2.936.218.163.01.28-.036.352-.138.071-.102.154-.329.248-.68l1.9-7.093zm1.805 9.66c-.227-.06-.4-.156-.52-.288-.108-.128-.136-.29-.084-.486.088-.33.354-.435.797-.317l.325.087c.587.158 1.193-.083 1.817-.722.637-.647 1.214-1.502 1.73-2.567a17.053 17.053 0 001.215-3.17c.127-.474.116-.847-.032-1.118-.145-.282-.522-.505-1.13-.668-.03-.008-.038-.043-.021-.105.016-.062.04-.088.07-.08l7.388 1.98c.031.008.038.043.022.105-.017.061-.04.088-.071.08-.392-.105-.689-.151-.89-.14-.2.002-.355.066-.466.19-.1.128-.192.347-.275.656l-1.917 7.155c-.083.31-.114.55-.094.721a.598.598 0 00.308.397c.172.101.453.204.845.309.03.008.038.043.021.105-.016.062-.04.089-.07.081-.32-.086-.571-.159-.754-.219l-1.062-.301-1.102-.279a14.03 14.03 0 01-.761-.187c-.031-.008-.038-.043-.022-.105.017-.062.04-.089.072-.08.401.107.697.159.886.154.199-.002.349-.066.45-.194.113-.135.211-.357.294-.667l1.9-7.093c.095-.35.136-.588.125-.712-.01-.125-.084-.222-.22-.291-.136-.07-.425-.164-.868-.283l-.789-.21c-.309-.084-.547-.12-.716-.11a.575.575 0 00-.431.249c-.116.145-.223.398-.32.76-.281 1.05-.701 2.185-1.26 3.405-.548 1.222-1.208 2.244-1.98 3.064-.762.823-1.565 1.121-2.41.895zm18.21 4.483c.022.005.023.039.007.101-.017.061-.035.09-.056.084-.33-.088-.586-.162-.768-.222l-1.063-.302-1.086-.274a15.049 15.049 0 01-.761-.187c-.02-.006-.023-.04-.006-.101.017-.062.035-.09.056-.085.391.105.687.157.886.155.2-.002.349-.067.45-.195.103-.138.196-.361.279-.67l1.006-3.756a2.291 2.291 0 00-.959-.008c-.28.057-.605.219-.974.484-.357.258-.814.666-1.372 1.223-.736.73-1.288 1.245-1.656 1.544-.357.302-.6.469-.73.5a.838.838 0 01-.442-.019l-1.592-.427c-.03-.008-.038-.043-.021-.105.016-.062.04-.088.07-.08.54.133 1.058.051 1.557-.246.502-.307 1.164-.88 1.986-1.72.573-.576 1.066-.974 1.479-1.194a2.574 2.574 0 011.31-.312c-.875-.323-1.495-.748-1.862-1.277-.353-.537-.442-1.13-.269-1.778.125-.464.354-.844.687-1.141a2.511 2.511 0 011.228-.566c.488-.09 1-.063 1.536.08.237.064.506.152.807.266.12.044.262.093.424.147.162.055.341.108.537.16.268.072.62.156 1.06.251l.791.196c.021.005.023.039.007.1-.017.063-.036.09-.056.085-.402-.107-.704-.155-.906-.143-.2.002-.35.067-.45.194-.1.128-.192.346-.275.655l-1.917 7.156c-.083.309-.114.549-.094.72a.59.59 0 00.293.393c.171.102.458.206.86.314zm-3.376-8.972c-.202.752-.152 1.411.149 1.978.301.566.853.957 1.657 1.173.134.036.327.076.58.122l.837-3.122c.11-.412.064-.734-.14-.965-.2-.241-.485-.412-.856-.51-1.165-.313-1.907.129-2.227 1.324zm14.09 6.21c.798.28 1.38.729 1.744 1.346.378.609.471 1.269.28 1.98a2.914 2.914 0 01-.798 1.376 2.975 2.975 0 01-1.395.752 3.363 3.363 0 01-1.66-.047 15.31 15.31 0 01-1.1-.344 30.148 30.148 0 00-.502-.168 12.146 12.146 0 00-.645-.189l-1.055-.266c-.188-.04-.453-.105-.792-.196-.021-.006-.023-.039-.007-.101.017-.062.036-.09.056-.085.392.105.687.157.886.155.202-.012.359-.081.47-.206.11-.125.207-.342.29-.651l1.917-7.155c.083-.31.108-.546.074-.71-.023-.16-.12-.291-.292-.392-.169-.112-.444-.219-.825-.32-.031-.009-.038-.044-.022-.106.017-.062.04-.088.072-.08l.753.218c.427.137.774.24 1.042.313a12.223 12.223 0 00.94.202c.328.055.63.12.909.194.865.232 1.463.596 1.794 1.093.333.487.419 1.034.256 1.642a2.119 2.119 0 01-.836 1.201c-.421.296-.94.477-1.553.544zm-.062-4.34c-.268-.071-.474-.105-.62-.1-.134.009-.253.082-.356.22-.104.138-.2.377-.292.717l-.787 2.936.692.202c.752.201 1.36.16 1.822-.125.465-.295.784-.761.955-1.4.155-.577.12-1.084-.106-1.52-.213-.443-.649-.753-1.308-.93zm-1.924 9.407c.752.201 1.36.16 1.822-.125.476-.292.81-.799 1.004-1.52.21-.783.147-1.479-.187-2.087-.323-.606-.885-1.021-1.686-1.247a12.501 12.501 0 00-1.183-.284l-1.023 3.817c-.072.268-.09.484-.057.648.043.166.164.314.36.444.21.123.527.241.95.354zm9.623 3.009c-.959-.257-1.754-.707-2.388-1.352a4.918 4.918 0 01-1.242-2.287 5.571 5.571 0 01.072-2.681c.285-1.061.795-1.896 1.533-2.505a5.202 5.202 0 012.515-1.165 6.436 6.436 0 012.734.12c.979.263 1.777.725 2.394 1.387a4.71 4.71 0 011.216 2.264c.2.86.187 1.712-.04 2.557a4.9 4.9 0 01-1.432 2.382 5.5 5.5 0 01-2.491 1.321 5.694 5.694 0 01-2.871-.041zm.627-.18c.701.188 1.375.187 2.023-.004.657-.189 1.234-.57 1.73-1.143.507-.571.882-1.31 1.124-2.217.26-.969.31-1.877.151-2.726s-.512-1.573-1.058-2.172c-.536-.596-1.242-1.012-2.117-1.246-1.134-.304-2.118-.176-2.953.385-.834.56-1.423 1.479-1.765 2.757-.26.968-.317 1.903-.172 2.803.148.89.485 1.654 1.01 2.291a3.896 3.896 0 002.027 1.272zm16.544 4.383c.03.009.038.044.021.106-.016.061-.04.088-.071.08a14.88 14.88 0 01-.769-.223l-1.046-.297-1.102-.278c-.188-.04-.442-.102-.761-.188-.031-.008-.038-.043-.022-.105.017-.062.04-.088.072-.08.391.105.686.156.886.154.199-.001.349-.066.45-.194.102-.138.195-.361.278-.67l1.901-7.094c.094-.35.136-.588.125-.712 0-.122-.07-.217-.205-.287-.136-.07-.426-.164-.869-.282l-3.168-.849c-.463-.125-.777-.192-.94-.202-.162-.011-.281.04-.355.153-.072.102-.153.323-.244.663l-1.901 7.094c-.083.309-.114.549-.094.72a.59.59 0 00.293.393c.171.102.458.206.86.314.02.005.022.039.006.101-.017.061-.035.09-.056.084-.32-.086-.57-.158-.753-.218l-1.109-.314-1.055-.266a14.347 14.347 0 01-.777-.192c-.02-.005-.022-.039-.006-.101.017-.061.035-.09.056-.084.391.105.687.156.886.155.21 0 .365-.063.465-.191.114-.135.212-.357.295-.666l1.867-6.97c.086-.32.116-.577.091-.771a.673.673 0 00-.283-.49c-.174-.135-.446-.252-.817-.351-.02-.006-.022-.04-.006-.101.017-.062.035-.09.056-.085.35.094.684.189 1 .285a270.128 270.128 0 008.829 2.349l.51.137c.031.008.038.043.022.105-.017.062-.04.088-.072.08-.535-.143-.92-.147-1.156-.012-.225.139-.4.44-.523.904l-1.868 6.97c-.083.309-.114.549-.094.72.034.164.136.296.308.397.172.101.453.205.845.309zm3.829-.183c-.088.33-.112.583-.071.76.054.169.197.317.427.446.241.13.635.269 1.18.415.032.009.039.044.022.105-.016.062-.04.089-.07.081a24.32 24.32 0 01-.986-.281l-1.34-.375-1.04-.262a17.944 17.944 0 01-.792-.196c-.02-.006-.023-.039-.006-.101.016-.062.035-.09.056-.085.391.105.681.155.87.151.2-.002.35-.067.45-.194.103-.138.196-.362.279-.671l1.917-7.156c.083-.309.113-.544.09-.705-.023-.16-.12-.291-.293-.393-.158-.108-.433-.215-.825-.32-.02-.006-.022-.039-.006-.101.017-.062.035-.09.056-.084l.769.222c.427.137.77.239 1.027.308.257.069.55.131.878.186.123.033.32.08.591.142.273.051.508.103.704.155.948.254 1.648.668 2.102 1.243.464.577.58 1.298.348 2.163-.183.68-.506 1.207-.97 1.579a3.106 3.106 0 01-1.56.692 4.2 4.2 0 01-1.714-.095 3.078 3.078 0 01-.721-.276c-.031-.008-.04-.038-.026-.09a.308.308 0 01.04-.088c.03-.026.053-.03.07-.014.154.085.334.155.54.21.68.183 1.312.114 1.894-.204.593-.317 1-.892 1.224-1.726.218-.814.168-1.512-.15-2.095-.317-.593-.82-.981-1.51-1.166-.371-.1-.645-.151-.82-.154a.528.528 0 00-.435.199c-.11.125-.213.362-.306.712l-1.893 7.063zm10.679 4.468c-.958-.256-1.754-.707-2.388-1.352a4.912 4.912 0 01-1.242-2.287 5.569 5.569 0 01.072-2.681c.285-1.061.796-1.896 1.533-2.504a5.207 5.207 0 012.515-1.165 6.43 6.43 0 012.734.12c.98.262 1.777.724 2.395 1.387a4.71 4.71 0 011.215 2.263c.201.86.188 1.713-.039 2.557a4.908 4.908 0 01-1.433 2.383 5.512 5.512 0 01-2.49 1.32 5.683 5.683 0 01-2.872-.041zm.628-.179c.7.188 1.374.186 2.022-.005.658-.188 1.235-.569 1.73-1.143.507-.571.882-1.31 1.125-2.217.259-.968.309-1.877.15-2.725-.159-.849-.511-1.573-1.058-2.172-.535-.597-1.241-1.012-2.117-1.247-1.133-.303-2.118-.175-2.952.385-.835.561-1.424 1.48-1.766 2.757-.26.969-.317 1.903-.171 2.803.148.89.484 1.654 1.009 2.292a3.901 3.901 0 002.028 1.272zm14.645-6.462c.495.133.982.313 1.462.541.48.228.846.47 1.098.725.082.066.126.127.133.184a.52.52 0 01-.001.249l-.293 1.776c-.009.031-.04.045-.094.041-.052-.013-.079-.037-.081-.071-.014-.854-.28-1.549-.799-2.086-.506-.544-1.212-.937-2.119-1.18-.783-.21-1.515-.219-2.196-.026a3.56 3.56 0 00-1.749 1.089c-.488.543-.842 1.226-1.063 2.05a6.255 6.255 0 00-.125 2.816c.184.922.547 1.709 1.089 2.363.554.656 1.222 1.089 2.005 1.299.741.198 1.439.17 2.093-.086.656-.265 1.242-.782 1.757-1.55.008-.031.033-.04.074-.029.031.008.056.02.073.036.029.018.04.038.034.059l-.684 1.688a.655.655 0 01-.144.227c-.028.025-.095.046-.199.062a7.734 7.734 0 01-3.093-.199c-1.237-.332-2.206-.856-2.908-1.575-.689-.725-1.126-1.527-1.31-2.405a5.514 5.514 0 01.067-2.599 4.502 4.502 0 011.471-2.339 5.429 5.429 0 012.555-1.187 6.615 6.615 0 012.947.127zm6.898 12.582c-.958-.257-1.754-.707-2.388-1.352a4.917 4.917 0 01-1.242-2.287 5.579 5.579 0 01.072-2.681c.285-1.061.796-1.896 1.533-2.505a5.194 5.194 0 012.515-1.164 6.444 6.444 0 012.734.119c.979.263 1.777.725 2.395 1.387a4.718 4.718 0 011.215 2.264c.201.86.188 1.712-.039 2.557a4.9 4.9 0 01-1.433 2.382 5.5 5.5 0 01-2.491 1.321 5.682 5.682 0 01-2.871-.041zm.628-.179c.7.187 1.374.186 2.022-.005.658-.188 1.235-.569 1.731-1.143.506-.571.881-1.31 1.124-2.217.259-.968.309-1.877.15-2.726s-.511-1.572-1.058-2.172c-.535-.596-1.241-1.011-2.117-1.246-1.133-.304-2.117-.175-2.952.385s-1.424 1.479-1.766 2.757c-.26.968-.317 1.903-.171 2.803.148.89.484 1.654 1.009 2.291a3.9 3.9 0 002.028 1.273zm12.186-2.417c.798.28 1.379.729 1.744 1.345.378.61.471 1.27.281 1.981a2.918 2.918 0 01-2.194 2.128 3.374 3.374 0 01-1.66-.047 14.94 14.94 0 01-1.101-.345 41.75 41.75 0 00-.501-.167 12.146 12.146 0 00-.645-.189l-1.055-.267a15.07 15.07 0 01-.793-.195c-.02-.006-.022-.04-.006-.101.017-.062.035-.09.056-.085.392.105.687.157.886.155.202-.012.359-.081.469-.206.111-.125.208-.342.291-.651l1.917-7.155c.083-.309.108-.546.074-.709-.023-.161-.12-.292-.292-.393-.169-.112-.444-.219-.825-.321-.031-.008-.038-.043-.022-.105.017-.062.041-.089.071-.08l.754.218c.427.137.774.241 1.042.313.186.049.357.09.514.121.168.034.31.061.426.081.328.054.631.119.909.193.865.232 1.463.597 1.794 1.094.333.487.418 1.034.255 1.642-.132.495-.41.895-.835 1.201-.421.296-.939.477-1.554.544zm-.062-4.34c-.268-.072-.475-.105-.62-.1-.134.009-.253.082-.357.22-.103.138-.2.377-.291.717l-.787 2.936.691.202c.753.201 1.36.16 1.823-.125.465-.295.784-.762.955-1.4.154-.577.119-1.084-.107-1.52-.212-.443-.648-.753-1.307-.93zm-1.925 9.407c.753.201 1.36.16 1.823-.125.476-.292.81-.799 1.003-1.52.21-.783.148-1.479-.186-2.087-.323-.606-.886-1.022-1.686-1.247a12.255 12.255 0 00-1.183-.284l-1.023 3.817c-.072.268-.091.484-.058.647.044.167.165.315.362.445.21.123.526.241.948.354zm18.677 5.037c.021.006.023.039.006.101-.017.062-.035.09-.056.085a15.908 15.908 0 01-.768-.223l-1.063-.301-1.132-.287c-.188-.039-.437-.1-.746-.183-.021-.006-.023-.039-.006-.101.017-.062.035-.09.056-.085.402.108.702.161.901.159.2-.002.35-.067.45-.194.114-.135.212-.358.295-.667l1.71-6.383-7.398 4.611-.062.232c-.082.309-.114.549-.093.72.033.164.136.296.307.397.172.102.459.206.861.314.02.005.022.039.006.101-.017.061-.035.09-.056.084a14.291 14.291 0 01-.753-.218l-1.109-.314-1.07-.27a14.98 14.98 0 01-.777-.192c-.021-.005-.023-.039-.006-.101.016-.062.035-.09.055-.084.392.105.687.156.887.154.209.001.364-.062.465-.19.113-.135.211-.357.294-.666l1.918-7.156c.082-.309.107-.545.074-.709-.024-.161-.121-.292-.293-.393-.169-.111-.449-.22-.84-.324-.021-.006-.023-.04-.006-.101.016-.062.035-.09.055-.085l.784.227c.428.136.77.239 1.028.308.298.08.677.171 1.136.272l.746.183c.021.005.023.039.006.101-.016.062-.035.09-.056.084-.391-.105-.693-.152-.905-.143a.64.64 0 00-.474.221c-.1.128-.192.346-.275.655l-1.706 6.368 7.389-4.58.067-.247c.082-.309.107-.546.074-.709a.583.583 0 00-.284-.424c-.169-.112-.455-.221-.856-.329-.021-.006-.023-.039-.007-.101.017-.062.036-.09.056-.085l.738.215c.448.142.821.253 1.12.333.257.069.616.154 1.075.255l.776.191c.021.006.023.04.006.101-.016.062-.035.09-.055.085-.392-.105-.689-.151-.891-.139a.594.594 0 00-.465.19c-.1.127-.192.346-.275.655l-1.917 7.156c-.083.309-.114.549-.094.72a.598.598 0 00.308.397c.172.101.453.204.845.309zm-118.99-12.213c.031.009.039.044.022.105-.017.062-.04.089-.071.081a16.01 16.01 0 01-.769-.223l-1.047-.297-1.101-.278c-.188-.04-.442-.102-.762-.188-.03-.008-.038-.043-.021-.105.017-.062.04-.089.071-.08.392.105.687.156.886.154.2-.002.35-.066.45-.194.103-.138.196-.361.279-.671l1.9-7.093c.095-.351.136-.588.125-.712 0-.122-.068-.218-.204-.287-.136-.07-.426-.164-.869-.283l-3.168-.848c-.464-.125-.777-.192-.94-.203-.163-.01-.281.041-.356.154-.071.102-.153.323-.244.663l-1.9 7.094c-.083.309-.114.549-.094.72a.59.59 0 00.292.393c.172.101.458.206.86.313.021.006.023.04.006.101-.016.062-.035.09-.055.085a15.77 15.77 0 01-.754-.218l-1.108-.314-1.055-.266c-.188-.04-.447-.103-.777-.192-.02-.005-.023-.039-.006-.101.017-.062.035-.09.056-.084.391.105.687.156.886.154.21.001.364-.062.465-.19.113-.135.212-.357.294-.666l1.868-6.97c.086-.32.116-.577.09-.771a.673.673 0 00-.282-.49c-.174-.135-.446-.252-.817-.351-.02-.006-.023-.04-.006-.101.016-.062.035-.09.056-.085.35.094.683.189 1 .285a269.918 269.918 0 008.829 2.349l.51.136c.03.009.038.044.021.106-.016.061-.04.088-.07.08-.537-.144-.922-.148-1.157-.012-.225.139-.4.44-.524.903l-1.867 6.971c-.083.309-.114.549-.094.72.033.163.136.296.308.397.171.101.453.204.844.309zm3.83-.183c-.089.33-.112.583-.071.76.054.169.196.317.427.445.24.131.634.27 1.18.416.031.008.038.043.022.105-.017.062-.04.089-.071.081a25.99 25.99 0 01-.985-.281l-1.34-.376-1.04-.262a16.374 16.374 0 01-.793-.195c-.02-.006-.022-.04-.006-.101.017-.062.035-.09.056-.085.392.105.682.155.87.151.2-.002.35-.067.45-.195.104-.138.197-.361.28-.67l1.917-7.156c.083-.309.112-.544.09-.705-.024-.16-.121-.292-.293-.393-.158-.108-.434-.215-.825-.32-.02-.006-.023-.039-.006-.101.016-.062.035-.09.056-.085l.768.223c.427.136.77.239 1.027.308.258.069.55.131.878.186.124.033.321.08.592.142.273.051.508.103.703.155.948.254 1.649.668 2.102 1.242.464.578.58 1.299.348 2.164-.182.68-.505 1.207-.97 1.579a3.115 3.115 0 01-1.56.692 4.2 4.2 0 01-1.713-.095 3.08 3.08 0 01-.721-.276c-.031-.008-.04-.038-.026-.09a.299.299 0 01.04-.088c.029-.026.052-.03.07-.015.154.086.334.156.54.211.68.182 1.311.114 1.894-.205.592-.316 1-.891 1.224-1.726.218-.814.168-1.512-.151-2.094-.316-.593-.82-.981-1.51-1.166-.37-.1-.644-.151-.82-.154a.53.53 0 00-.434.198c-.11.125-.213.363-.307.713l-1.892 7.063zm13.03 2.431c.005-.02.029-.025.07-.014.03.008.055.02.073.036.028.019.04.038.034.059a14.927 14.927 0 00-.686 2.003c-.022.082-.059.139-.111.169-.04.022-.105.021-.198-.004l-6.476-1.735c-.02-.005-.022-.039-.006-.101.017-.062.035-.09.056-.084.392.105.682.155.87.15.2-.002.35-.066.45-.194.114-.135.212-.357.295-.666l1.917-7.156c.083-.309.108-.545.074-.709-.023-.161-.12-.292-.292-.393-.159-.109-.434-.216-.825-.321-.02-.005-.023-.039-.006-.101.016-.061.035-.09.056-.084l6.212 1.665c.093.025.127.083.102.176l-.478 1.909c-.009.031-.04.045-.094.041-.052-.013-.078-.037-.08-.071.115-.554.063-1.021-.155-1.4-.216-.389-.572-.65-1.066-.782l-.943-.253c-.36-.096-.637-.137-.828-.122a.585.585 0 00-.434.198c-.098.117-.184.315-.259.593l-.84 3.138 1.885.505c.494.132.867.144 1.117.034.26-.107.443-.356.548-.747.006-.021.04-.023.101-.006.062.016.09.035.085.055l-.351 1.248c-.08.299-.136.527-.167.684l-.183.746c-.006.021-.04.023-.101.006-.062-.016-.09-.035-.085-.056.122-.453.095-.808-.079-1.064-.164-.254-.503-.45-1.018-.588l-1.84-.493-.952 3.555c-.077.288-.103.508-.077.658a.54.54 0 00.265.37c.151.095.402.19.752.284l1.237.331c.494.133.954.068 1.377-.194.424-.262.775-.687 1.054-1.275zm10.577 5.104c.093.025.142.049.146.072.018.016.015.07-.01.163a8.622 8.622 0 01-.151.44 18.133 18.133 0 00-.676 2.088c-.013.052-.051.069-.113.053-.062-.017-.086-.051-.072-.102.237-.886.215-1.588-.066-2.105-.28-.517-.86-.893-1.735-1.128l-4.837-1.296c-.66-.176-1.22-.123-1.683.162-.466.295-.824.911-1.076 1.849-.013.051-.051.069-.113.052-.062-.016-.086-.05-.072-.102.188-.7.329-1.392.423-2.073a3.59 3.59 0 01.098-.553.467.467 0 01.057-.151c.027-.015.076-.013.148.007.793.212 1.596-.086 2.41-.895.815-.82 1.528-1.832 2.139-3.038.62-1.203 1.048-2.243 1.282-3.118.078-.289.102-.525.074-.709-.014-.192-.123-.365-.325-.518-.199-.164-.53-.308-.994-.432-.02-.006-.022-.039-.006-.101.017-.062.035-.09.056-.085l7.356 1.972c.021.005.023.039.007.101-.017.061-.036.09-.056.084-.392-.105-.688-.151-.89-.139-.2.002-.355.065-.466.19-.1.128-.192.346-.275.655l-1.917 7.156c-.108.402-.157.67-.15.804.009.135.107.244.294.328.188.083.585.206 1.193.369zm-.432-8.895c.094-.35.135-.588.124-.712 0-.122-.07-.212-.209-.271-.136-.07-.425-.164-.868-.283l-.758-.203c-.309-.083-.537-.094-.686-.035-.146.05-.268.177-.367.382-.1.206-.255.6-.467 1.184a26.022 26.022 0 01-.988 2.203c-.42.87-.938 1.731-1.553 2.582-.604.854-1.227 1.427-1.868 1.719l4.204 1.127c.473.127.785.199.935.217.163.011.28-.035.352-.137.071-.103.154-.329.248-.679l1.9-7.094zm1.805 9.66c-.227-.06-.4-.156-.519-.288-.11-.128-.137-.291-.085-.486.088-.33.354-.436.797-.317l.325.087c.587.157 1.193-.083 1.817-.722.637-.647 1.214-1.503 1.731-2.568a17.036 17.036 0 001.214-3.17c.127-.473.116-.846-.032-1.118-.145-.282-.522-.504-1.13-.667-.03-.008-.038-.043-.021-.105.016-.062.04-.089.071-.08l7.387 1.979c.031.008.038.043.022.105-.017.062-.04.089-.071.08-.392-.104-.689-.151-.89-.139-.2.002-.355.066-.466.19-.1.128-.192.347-.275.656l-1.917 7.155c-.083.309-.114.549-.094.72.034.164.137.296.308.398.172.101.453.204.845.309.03.008.038.043.021.105-.016.062-.04.089-.07.08-.32-.085-.571-.158-.754-.218l-1.062-.301-1.102-.279a15.021 15.021 0 01-.761-.187c-.031-.009-.038-.044-.022-.105.017-.062.04-.089.072-.081.401.108.697.159.886.155.2-.002.349-.067.45-.194.113-.136.211-.358.294-.667l1.9-7.094c.095-.35.136-.587.125-.712-.01-.124-.084-.221-.22-.291-.136-.069-.425-.163-.869-.282l-.788-.211c-.309-.083-.547-.119-.716-.109a.574.574 0 00-.431.249c-.116.145-.223.398-.32.759-.28 1.051-.701 2.186-1.26 3.406-.548 1.222-1.208 2.243-1.98 3.064-.762.822-1.565 1.121-2.41.894zm15.144 4.058c-.958-.257-1.754-.707-2.387-1.352a4.912 4.912 0 01-1.242-2.287 5.57 5.57 0 01.072-2.681c.284-1.061.795-1.896 1.532-2.505a5.205 5.205 0 012.515-1.164 6.446 6.446 0 012.735.119c.978.263 1.777.725 2.394 1.387a4.717 4.717 0 011.216 2.264c.2.86.187 1.712-.04 2.557a4.901 4.901 0 01-1.433 2.382 5.5 5.5 0 01-2.49 1.321 5.683 5.683 0 01-2.872-.041zm.628-.179c.7.187 1.375.186 2.022-.005.658-.188 1.235-.569 1.731-1.143.506-.571.881-1.31 1.124-2.217.26-.968.31-1.877.15-2.726-.158-.848-.511-1.572-1.057-2.172-.536-.596-1.242-1.011-2.118-1.246-1.133-.304-2.117-.175-2.952.385s-1.423 1.479-1.766 2.757c-.26.968-.316 1.903-.171 2.803.148.89.484 1.654 1.01 2.291a3.897 3.897 0 002.027 1.273zm20.281 5.384c.02.006.023.039.006.101-.017.062-.035.09-.056.085l-1.962-.526a.53.53 0 01-.296-.195c-.07-.108-.176-.351-.318-.732l-.73-2.216c-.279-.859-.489-1.456-.63-1.792-.14-.347-.314-.603-.523-.77-.196-.174-.5-.316-.913-.427l-.344-.075-.965 3.601c-.085.319-.116.559-.093.72.023.161.115.29.276.389.172.101.459.206.86.313.032.009.039.044.022.105-.016.062-.04.089-.071.081a15.15 15.15 0 01-.753-.219l-1.093-.309-1.055-.266a16.55 16.55 0 01-.777-.192c-.02-.005-.023-.039-.006-.101.016-.062.035-.09.055-.084.402.107.703.16.902.158.2-.001.35-.066.45-.194.113-.135.211-.357.294-.666l.96-3.586a4.231 4.231 0 00-.377-.134c-.402-.108-.737-.137-1.004-.087-.254.042-.532.172-.833.39-.291.22-.77.627-1.437 1.221l-.442.412c-.541.495-.977.887-1.308 1.173-.328.277-.543.44-.645.49a.517.517 0 01-.334.01l-1.947-.522c-.02-.005-.023-.039-.006-.101.016-.062.035-.09.055-.084.395.094.766.089 1.115-.016a3.99 3.99 0 001.115-.579 25.5 25.5 0 001.575-1.301c.77-.688 1.297-1.132 1.582-1.332.299-.207.603-.313.914-.318l-1.092-3.158c-.261-.755-.569-1.318-.922-1.689-.343-.368-.803-.629-1.38-.784-.021-.005-.023-.039-.007-.101.017-.062.036-.09.056-.084l.568.169a19.804 19.804 0 002.194.588l.716.175c.03.008.038.043.021.105-.017.062-.04.088-.071.08-.289-.077-.508-.103-.659-.077a.288.288 0 00-.26.229c-.033.123-.025.302.022.535.059.237.154.583.286 1.038l.865 3.014a3.3 3.3 0 01.55.114l.845.244c.06.026.166.061.32.102l.883-3.292c.08-.299.093-.533.038-.702-.04-.176-.157-.318-.35-.425-.189-.117-.485-.229-.886-.337-.021-.005-.023-.039-.007-.101.017-.062.036-.09.056-.084l.83.239c.47.147.837.257 1.105.329.299.08.698.176 1.198.288l.824.204c.02.005.022.039.006.101-.017.062-.035.09-.056.084-.392-.105-.704-.155-.937-.151a.768.768 0 00-.535.204c-.124.133-.226.348-.306.647l-.873 3.261a53.62 53.62 0 011.151.276c.258.069.437.122.537.16l2.249-2.147c.339-.318.589-.571.75-.76.171-.186.273-.341.306-.464a.288.288 0 00-.11-.328c-.108-.095-.305-.181-.594-.259-.03-.008-.038-.043-.021-.105.016-.062.04-.088.07-.08l.708.206a20.224 20.224 0 002.195.588l.575.138c.02.005.023.039.006.101-.016.061-.035.09-.055.084-.577-.155-1.112-.16-1.603-.015-.481.147-1.024.482-1.628 1.005l-2.54 2.185c.26.146.46.366.602.658.143.292.356.857.64 1.695l.11.328c.284.838.522 1.476.713 1.914.195.427.415.779.662 1.055.26.268.583.46.972.575zm8.051-.112c.005-.021.029-.025.07-.014.031.008.055.02.073.036.028.018.039.038.034.059a14.927 14.927 0 00-.686 2.002c-.022.083-.059.139-.111.169-.04.023-.105.022-.198-.003l-6.476-1.735c-.02-.006-.022-.039-.006-.101.017-.062.035-.09.056-.085.391.105.682.155.87.151.2-.002.35-.067.45-.194.114-.136.212-.358.295-.667l1.917-7.155c.083-.31.108-.546.074-.709-.023-.161-.12-.292-.292-.393-.159-.109-.434-.216-.825-.321-.02-.006-.023-.039-.006-.101.016-.062.035-.09.055-.084l6.213 1.664c.093.025.127.084.102.177l-.478 1.909c-.009.031-.04.044-.094.041-.052-.014-.078-.038-.081-.071.116-.555.064-1.021-.154-1.4-.216-.389-.572-.65-1.066-.783l-.943-.252c-.36-.097-.637-.138-.828-.123a.59.59 0 00-.435.199c-.097.117-.184.315-.258.593l-.84 3.137 1.885.506c.494.132.867.143 1.117.034.261-.107.443-.356.548-.748.006-.02.039-.022.101-.006.062.017.09.035.085.056l-.351 1.248c-.08.298-.136.526-.167.684l-.183.746c-.006.02-.04.022-.101.006-.062-.017-.09-.035-.085-.056.122-.453.095-.808-.079-1.065-.164-.253-.503-.449-1.019-.587l-1.839-.493-.952 3.554c-.077.289-.103.508-.077.659a.54.54 0 00.265.369c.151.096.402.191.752.285l1.237.331c.494.132.953.068 1.377-.194.423-.262.775-.687 1.054-1.275zm11.551 5.364c.031.009.038.044.021.106-.016.061-.04.088-.071.08a15.48 15.48 0 01-.753-.219l-1.062-.301-1.133-.287c-.188-.039-.437-.1-.746-.183-.031-.008-.038-.043-.021-.105.016-.062.04-.089.071-.08.402.107.702.16.902.158.199-.001.349-.066.449-.194.114-.135.212-.357.295-.666l.969-3.617-5.935-1.59-.969 3.617c-.083.309-.114.549-.094.72a.598.598 0 00.308.397c.172.101.459.206.86.313.021.006.023.04.006.101-.016.062-.035.09-.055.085-.32-.086-.571-.159-.753-.219l-1.109-.313-1.071-.27c-.188-.04-.447-.104-.776-.192-.021-.006-.023-.039-.007-.101.017-.062.036-.09.056-.085.392.105.687.157.886.155.21.001.365-.062.465-.19.114-.135.212-.357.295-.667l1.917-7.155c.083-.309.108-.546.074-.709-.023-.161-.12-.292-.292-.393-.169-.112-.449-.22-.841-.325-.02-.005-.022-.039-.006-.101.017-.062.036-.09.056-.084l.784.226c.427.137.77.24 1.027.309.299.08.678.17 1.137.271l.746.184c.02.005.022.039.006.101-.017.061-.035.09-.056.084-.391-.105-.693-.153-.906-.143a.635.635 0 00-.473.221c-.1.127-.192.346-.275.655l-.853 3.184 5.935 1.59.853-3.184c.083-.309.107-.545.074-.709-.021-.171-.115-.312-.284-.424-.169-.111-.454-.221-.856-.329-.031-.008-.038-.043-.022-.105.017-.062.041-.088.071-.08l.738.214c.448.142.821.253 1.12.333.278.075.636.16 1.075.255l.761.188c.031.008.038.043.022.105-.017.062-.041.088-.072.08-.391-.105-.688-.151-.89-.139-.199.002-.354.065-.465.19-.1.128-.192.346-.275.655l-1.917 7.156c-.083.309-.114.549-.094.72.034.164.136.296.308.397.172.101.453.204.845.309zm11.557 3.097c.02.006.022.039.006.101-.017.062-.035.09-.056.085a16.01 16.01 0 01-.769-.223l-1.062-.301-1.132-.287a14.971 14.971 0 01-.746-.183c-.021-.006-.023-.04-.006-.101.016-.062.035-.09.055-.085.402.108.703.161.902.159.199-.002.349-.067.45-.194.113-.136.211-.358.294-.667l1.71-6.383-7.397 4.611-.062.232c-.083.309-.114.549-.094.72.034.164.136.296.308.397.172.101.458.206.86.314.021.005.023.039.006.101-.016.061-.035.09-.055.084-.32-.086-.571-.158-.754-.218l-1.108-.314-1.071-.27c-.188-.04-.447-.104-.777-.192-.02-.005-.022-.039-.006-.101.017-.062.036-.09.056-.084.392.105.687.156.886.154.21.001.365-.062.465-.19.114-.135.212-.357.295-.666l1.917-7.156c.083-.309.108-.545.074-.709-.023-.161-.12-.292-.292-.393-.169-.111-.449-.22-.841-.325-.02-.005-.022-.039-.006-.101.017-.061.036-.089.056-.084l.784.227c.427.136.77.239 1.027.308.299.08.678.171 1.137.271l.746.184c.02.005.022.039.006.101-.017.062-.035.09-.056.084-.391-.105-.693-.152-.906-.143a.638.638 0 00-.473.221c-.1.128-.192.346-.275.655l-1.706 6.367 7.389-4.579.066-.247c.083-.31.108-.546.074-.709-.02-.172-.115-.313-.284-.424-.169-.112-.454-.221-.856-.329-.02-.006-.022-.039-.006-.101.017-.062.035-.09.056-.085l.738.215c.447.142.821.253 1.12.333.257.069.615.154 1.074.255l.777.191c.021.006.023.039.006.101-.016.062-.035.09-.056.085-.391-.105-.688-.152-.89-.139a.594.594 0 00-.465.19c-.1.127-.192.346-.275.655l-1.917 7.155c-.083.31-.114.55-.094.721a.598.598 0 00.308.397c.172.101.453.204.845.309zm11.545 3.094c.021.005.023.039.007.101-.017.062-.036.09-.056.084-.33-.088-.586-.162-.769-.222l-1.062-.301-1.132-.287c-.189-.04-.437-.101-.746-.184-.021-.005-.023-.039-.006-.101.016-.061.035-.09.055-.084.402.108.703.16.902.159.199-.002.349-.067.45-.195.113-.135.211-.357.294-.666l1.71-6.383-7.397 4.611-.062.231c-.083.31-.114.55-.094.721a.598.598 0 00.308.397c.172.101.458.206.86.313.021.006.023.039.006.101-.016.062-.035.09-.056.085a15.48 15.48 0 01-.753-.219l-1.108-.313-1.071-.271a15.288 15.288 0 01-.777-.191c-.02-.006-.022-.039-.006-.101.017-.062.035-.09.056-.085.392.105.687.157.886.155.21.001.365-.062.465-.19.114-.135.212-.357.295-.667l1.917-7.155c.083-.309.108-.546.074-.709-.023-.161-.12-.292-.292-.393-.169-.112-.449-.22-.841-.325-.02-.005-.022-.039-.006-.101.017-.062.035-.09.056-.084l.784.226c.427.137.77.24 1.027.309.299.08.678.17 1.137.271l.746.183c.02.006.022.04.006.101-.017.062-.035.09-.056.085-.392-.105-.693-.153-.906-.143a.633.633 0 00-.473.221c-.101.127-.192.346-.275.655l-1.706 6.367 7.389-4.579.066-.248c.083-.309.108-.545.074-.709-.02-.171-.115-.312-.284-.424-.169-.111-.454-.221-.856-.328-.021-.006-.023-.04-.006-.101.017-.062.035-.09.056-.085l.737.214c.448.142.822.253 1.12.334.258.069.616.154 1.075.254l.777.192c.021.005.023.039.006.101-.017.062-.035.09-.056.084-.391-.104-.688-.151-.89-.139-.199.002-.354.065-.465.19-.101.128-.192.346-.275.656l-1.917 7.155c-.083.309-.114.549-.094.72.033.164.136.296.308.398.171.101.453.204.844.309zm-2.436-11.801c.288.077.549.053.781-.072a1.45 1.45 0 00.569-.577 2.18 2.18 0 01.38-.494c.116-.102.267-.127.452-.078.288.078.39.276.304.595-.063.237-.227.436-.491.597a2.345 2.345 0 01-.944.311 3.054 3.054 0 01-1.086-.092 2.82 2.82 0 01-.981-.479 2.34 2.34 0 01-.663-.741c-.138-.268-.175-.521-.111-.758a.512.512 0 01.199-.311.45.45 0 01.357-.037c.196.052.314.15.353.293.052.136.079.342.082.619.028.681.294 1.089.799 1.224z" fill="#F1F1F1"/><rect x="14.526" y="74.94" width="150" height="50" rx="9.5" transform="rotate(15 14.526 74.94)" stroke="#F1F1F1" stroke-dasharray="10 7"/><path d="M98.467 58.49l.24.07.019-.063-.015-.065-.244.057zm-10.19-43.703a.25.25 0 00-.344.082l-1.18 1.915a.25.25 0 00.425.263l1.05-1.703 1.702 1.05a.25.25 0 10.263-.426l-1.916-1.18zm-.251 79.55l1.335-4.472-.479-.143-1.335 4.472.479.143zm4.005-13.416l2.67-8.944-.479-.143-2.67 8.944.48.143zm5.34-17.888l1.336-4.472-.48-.143-1.334 4.472.479.143zm1.34-4.601l-1.29-5.437-.487.116 1.29 5.436.487-.115zm-3.87-16.309L92.26 31.251l-.487.115 2.58 10.873.487-.116zM89.68 20.378l-1.29-5.436-.487.116 1.29 5.436.487-.116zm8.787 38.111l.48.143.038-.128-.031-.13-.487.115zM88.41 14.574a.5.5 0 00-.689.164l-2.36 3.83a.5.5 0 10.85.525l2.1-3.405 3.404 2.099a.5.5 0 00.525-.851l-3.83-2.362zm-.144 79.835l1.336-4.473-.959-.286-1.335 4.472.959.287zm4.006-13.416l2.67-8.945-.958-.286-2.67 8.944.958.287zm5.34-17.889l1.335-4.472-.958-.286-1.335 4.472.958.286zm1.343-4.73l-1.29-5.436-.973.23 1.29 5.437.973-.231zm-3.87-16.309l-2.58-10.872-.974.231 2.58 10.872.973-.23zm-5.161-21.744l-1.29-5.437-.973.231 1.29 5.437.973-.231z" fill="#F1F1F1"/></svg>