<svg width="180" height="163" viewBox="0 0 180 163" fill="none" xmlns="http://www.w3.org/2000/svg">
<path d="M25.8841 99.0082C25.9768 99.033 26.0256 99.0571 26.0304 99.0805C26.0482 99.0963 26.0447 99.1506 26.0199 99.2433C26.0061 99.2949 25.9557 99.4415 25.8689 99.6833C25.6421 100.241 25.417 100.937 25.1934 101.772C25.1796 101.823 25.1417 101.841 25.0799 101.824C25.0181 101.807 24.9941 101.773 25.0079 101.722C25.2453 100.836 25.2235 100.134 24.9424 99.6172C24.6613 99.1002 24.0829 98.7243 23.2071 98.4897L18.3697 97.1935C17.7103 97.0168 17.1493 97.0708 16.6865 97.3554C16.221 97.6503 15.8626 98.2665 15.6114 99.2041C15.5976 99.2556 15.5598 99.2731 15.4979 99.2565C15.4361 99.24 15.4121 99.2059 15.4259 99.1544C15.6136 98.4538 15.7546 97.7627 15.8489 97.0812C15.8704 96.8772 15.9033 96.6927 15.9475 96.5279C15.9696 96.4455 15.9885 96.3953 16.0043 96.3775C16.0305 96.3624 16.0796 96.3645 16.1517 96.3838C16.9451 96.5964 17.7483 96.2981 18.5614 95.489C19.3773 94.6696 20.0904 93.657 20.7006 92.4512C21.3211 91.2481 21.7487 90.2087 21.9833 89.3329C22.0606 89.0444 22.0853 88.8081 22.0574 88.6239C22.0425 88.4322 21.9341 88.2596 21.7323 88.1061C21.5332 87.9424 21.2019 87.7984 20.7382 87.6741C20.7176 87.6686 20.7156 87.635 20.7322 87.5731C20.7487 87.5113 20.7673 87.4832 20.7879 87.4887L28.1444 89.4599C28.165 89.4654 28.167 89.499 28.1505 89.5609C28.1339 89.6227 28.1153 89.6508 28.0947 89.6453C27.7032 89.5404 27.4064 89.494 27.2044 89.5061C27.0051 89.508 26.8501 89.5713 26.7394 89.6963C26.6389 89.8239 26.5472 90.0423 26.4644 90.3514L24.5471 97.507C24.4394 97.9088 24.3896 98.1771 24.3977 98.3118C24.4058 98.4464 24.5036 98.5555 24.6911 98.6388C24.8785 98.7222 25.2762 98.8453 25.8841 99.0082ZM25.4516 90.1132C25.5454 89.7628 25.5869 89.5255 25.5761 89.4011C25.5756 89.2795 25.5059 89.1891 25.3672 89.1298C25.2312 89.0603 24.9417 88.9661 24.4987 88.8474L23.7414 88.6445C23.4323 88.5617 23.2035 88.5501 23.055 88.6097C22.9093 88.659 22.7869 88.7863 22.6877 88.9916C22.5885 89.1969 22.4331 89.5915 22.2214 90.1753C21.9967 90.7666 21.6674 91.501 21.2335 92.3786C20.8126 93.2487 20.2949 94.1093 19.6803 94.9606C19.076 95.8146 18.4532 96.3876 17.8117 96.6796L22.0155 97.8059C22.4894 97.9329 22.8013 98.0055 22.951 98.0235C23.1139 98.034 23.2311 97.9881 23.3026 97.8858C23.3742 97.7835 23.4569 97.5572 23.5508 97.2069L25.4516 90.1132ZM27.257 99.7736C27.0304 99.7129 26.8573 99.6168 26.7379 99.4854C26.6288 99.3568 26.6005 99.1946 26.653 98.9989C26.7413 98.6692 27.007 98.5637 27.45 98.6824L27.7746 98.7693C28.3619 98.9267 28.9675 98.6859 29.5915 98.047C30.2285 97.4005 30.8057 96.5447 31.3229 95.4796C31.8505 94.4173 32.2551 93.3607 32.5367 92.3098C32.6637 91.8358 32.6532 91.4631 32.5051 91.1915C32.3597 90.9096 31.9831 90.6872 31.3753 90.5243C31.3443 90.516 31.3372 90.481 31.3537 90.4192C31.3703 90.3574 31.394 90.3306 31.4249 90.3389L38.8123 92.3183C38.8433 92.3266 38.8504 92.3616 38.8339 92.4235C38.8173 92.4853 38.7936 92.5121 38.7627 92.5038C38.3711 92.3989 38.0744 92.3525 37.8723 92.3646C37.6731 92.3664 37.5181 92.4298 37.4073 92.5547C37.3068 92.6824 37.2152 92.9008 37.1323 93.2099L35.215 100.365C35.1322 100.675 35.101 100.915 35.1214 101.086C35.1549 101.249 35.2574 101.382 35.4291 101.483C35.6007 101.584 35.8823 101.687 36.2738 101.792C36.3048 101.8 36.3119 101.835 36.2954 101.897C36.2788 101.959 36.2551 101.986 36.2242 101.978C35.9048 101.892 35.6537 101.819 35.471 101.759L34.4088 101.458L33.3073 101.179C33.1191 101.14 32.8653 101.078 32.5459 100.992C32.515 100.984 32.5078 100.949 32.5244 100.887C32.541 100.825 32.5647 100.798 32.5956 100.807C32.9974 100.914 33.2928 100.966 33.4818 100.961C33.681 100.959 33.8309 100.895 33.9314 100.767C34.0449 100.632 34.1431 100.41 34.2259 100.1L36.1267 93.0067C36.2205 92.6564 36.262 92.419 36.2512 92.2946C36.2404 92.1703 36.167 92.0733 36.031 92.0037C35.895 91.9342 35.6055 91.84 35.1625 91.7213L34.3743 91.5101C34.0652 91.4273 33.8265 91.3909 33.6581 91.4011C33.4898 91.4112 33.3461 91.4941 33.227 91.65C33.1107 91.7955 33.0043 92.0485 32.9076 92.4092C32.626 93.4601 32.2059 94.5954 31.6472 95.815C31.0988 97.0374 30.4386 98.0586 29.6667 98.8788C28.9051 99.7017 28.1019 100 27.257 99.7736ZM45.4679 104.256C45.4885 104.261 45.4905 104.295 45.474 104.357C45.4574 104.418 45.4388 104.447 45.4182 104.441C45.0885 104.353 44.8323 104.279 44.6496 104.219L43.5874 103.917L42.5014 103.643C42.3132 103.604 42.0594 103.541 41.74 103.456C41.7193 103.45 41.7173 103.416 41.7339 103.355C41.7505 103.293 41.769 103.265 41.7896 103.27C42.1812 103.375 42.4766 103.427 42.6758 103.425C42.8751 103.423 43.0249 103.358 43.1254 103.23C43.2286 103.092 43.3217 102.869 43.4045 102.56L44.4108 98.8043C44.0653 98.7338 43.7458 98.731 43.4523 98.7959C43.1719 98.8533 42.847 99.0147 42.4777 99.2802C42.1215 99.5381 41.6644 99.9457 41.1065 100.503C40.3698 101.233 39.8178 101.748 39.4505 102.047C39.0935 102.349 38.8501 102.516 38.7202 102.547C38.6006 102.581 38.4532 102.575 38.2781 102.528L36.6862 102.101C36.6553 102.093 36.6481 102.058 36.6647 101.996C36.6813 101.934 36.705 101.908 36.7359 101.916C37.2744 102.049 37.7933 101.967 38.2925 101.67C38.7945 101.363 39.4561 100.79 40.2775 99.9496C40.8513 99.3745 41.3444 98.9765 41.7569 98.7558C42.1694 98.535 42.6059 98.4311 43.0662 98.444C42.1919 98.1214 41.5716 97.6957 41.2054 97.1669C40.8521 96.6305 40.7625 96.0378 40.9364 95.3887C41.0607 94.925 41.2896 94.5447 41.6232 94.2475C41.9671 93.9532 42.3765 93.7647 42.8514 93.6822C43.3393 93.592 43.8512 93.6188 44.3869 93.7623C44.6239 93.8258 44.8928 93.9144 45.1936 94.0282C45.3145 94.0716 45.456 94.1206 45.6181 94.175C45.7802 94.2295 45.9591 94.283 46.1548 94.3354C46.4227 94.4072 46.7758 94.4908 47.2141 94.5861L48.0064 94.7819C48.027 94.7874 48.029 94.821 48.0125 94.8829C47.9959 94.9447 47.9773 94.9728 47.9567 94.9673C47.5549 94.8596 47.2529 94.8119 47.0509 94.824C46.8517 94.8258 46.7018 94.8906 46.6013 95.0183C46.5009 95.1459 46.4092 95.3643 46.3264 95.6734L44.4091 102.829C44.3262 103.138 44.295 103.378 44.3154 103.549C44.3489 103.713 44.4463 103.844 44.6077 103.942C44.7793 104.044 45.0661 104.148 45.4679 104.256ZM42.0909 95.2839C41.8893 96.036 41.9391 96.6954 42.24 97.2619C42.541 97.8284 43.0933 98.2194 43.8969 98.4347C44.0309 98.4706 44.2242 98.5114 44.477 98.557L45.3135 95.4352C45.424 95.023 45.3776 94.7014 45.1745 94.4703C44.9742 94.2289 44.6886 94.0585 44.3176 93.9591C43.1534 93.6471 42.4111 94.0887 42.0909 95.2839ZM56.1816 101.494C56.979 101.774 57.5601 102.223 57.9249 102.84C58.3027 103.449 58.3964 104.109 58.2059 104.82C58.0596 105.366 57.7932 105.824 57.4066 106.196C57.02 106.567 56.5552 106.818 56.0122 106.948C55.4823 107.072 54.9289 107.056 54.3519 106.901C54.0119 106.81 53.6451 106.695 53.2516 106.557C53.1101 106.508 52.9429 106.452 52.7499 106.389C52.5569 106.326 52.3419 106.263 52.1049 106.2L51.0498 105.934C50.8616 105.894 50.5975 105.829 50.2575 105.738C50.2369 105.732 50.2349 105.699 50.2514 105.637C50.268 105.575 50.2866 105.547 50.3072 105.552C50.6987 105.657 50.9941 105.709 51.1934 105.707C51.3954 105.695 51.5518 105.626 51.6625 105.501C51.7733 105.376 51.8701 105.159 51.9529 104.85L53.8703 97.6948C53.9531 97.3857 53.9778 97.1494 53.9443 96.9858C53.9211 96.825 53.8237 96.694 53.6521 96.5928C53.4832 96.4813 53.2081 96.3744 52.8269 96.2723C52.796 96.264 52.7888 96.2289 52.8054 96.1671C52.8219 96.1053 52.8457 96.0785 52.8766 96.0868L53.6297 96.3052C54.0569 96.4417 54.4045 96.5459 54.6724 96.6177C54.8578 96.6674 55.0292 96.7078 55.1865 96.7389C55.3541 96.7728 55.496 96.7997 55.6121 96.8198C55.9398 96.8745 56.2427 96.9391 56.5209 97.0136C57.3864 97.2455 57.9844 97.6101 58.315 98.1072C58.6483 98.5941 58.7336 99.1415 58.5707 99.7494C58.4382 100.244 58.1597 100.644 57.7354 100.95C57.3139 101.246 56.7959 101.427 56.1816 101.494ZM56.1188 97.1543C55.8509 97.0826 55.6445 97.0493 55.4995 97.0546C55.3648 97.0627 55.2458 97.1358 55.1426 97.2737C55.0394 97.4117 54.9422 97.6507 54.8511 97.9907L54.0643 100.927L54.7556 101.129C55.5077 101.33 56.1152 101.289 56.578 101.004C57.0435 100.709 57.3618 100.243 57.533 99.6038C57.6876 99.0268 57.6521 98.5204 57.4266 98.0845C57.2141 97.6411 56.7782 97.331 56.1188 97.1543ZM54.1946 106.561C54.9468 106.762 55.5542 106.721 56.017 106.436C56.4928 106.144 56.8273 105.637 57.0206 104.916C57.2304 104.133 57.1684 103.437 56.8345 102.829C56.5109 102.223 55.9486 101.808 55.1477 101.582C54.8208 101.483 54.4265 101.389 53.9649 101.298L52.942 105.115C52.8703 105.383 52.8511 105.599 52.8846 105.763C52.9284 105.929 53.0488 106.077 53.2458 106.207C53.4559 106.33 53.7722 106.448 54.1946 106.561ZM63.8176 109.57C62.8594 109.313 62.0636 108.863 61.4301 108.218C60.8098 107.566 60.3957 106.803 60.1878 105.931C59.9931 105.05 60.0172 104.157 60.2601 103.25C60.5445 102.189 61.0553 101.354 61.7926 100.745C62.5327 100.126 63.371 99.7381 64.3077 99.5805C65.2548 99.4256 66.1661 99.4655 67.0419 99.7002C68.0207 99.9625 68.8189 100.425 69.4365 101.087C70.0569 101.739 70.4621 102.494 70.652 103.351C70.8523 104.211 70.8393 105.063 70.6129 105.908C70.3617 106.846 69.8839 107.64 69.1795 108.29C68.4751 108.941 67.6449 109.381 66.6889 109.611C65.7432 109.843 64.7861 109.829 63.8176 109.57ZM64.4454 109.39C65.1461 109.578 65.8201 109.577 66.4676 109.386C67.1254 109.197 67.7023 108.816 68.1984 108.243C68.7048 107.672 69.0795 106.933 69.3224 106.026C69.5819 105.057 69.6321 104.149 69.473 103.3C69.314 102.451 68.9613 101.727 68.4151 101.128C67.8792 100.532 67.1733 100.116 66.2976 99.8817C65.1642 99.5781 64.1801 99.7064 63.3453 100.267C62.5105 100.827 61.9219 101.746 61.5796 103.024C61.3201 103.992 61.263 104.927 61.4083 105.827C61.5563 106.717 61.8927 107.481 62.4176 108.118C62.9452 108.745 63.6212 109.17 64.4454 109.39ZM80.9887 113.773C81.0196 113.782 81.0268 113.817 81.0102 113.879C80.9937 113.94 80.9699 113.967 80.939 113.959C80.6093 113.871 80.3531 113.796 80.1704 113.736L79.1236 113.439L78.0222 113.161C77.834 113.121 77.5802 113.059 77.2608 112.973C77.2299 112.965 77.2227 112.93 77.2393 112.868C77.2558 112.806 77.2796 112.78 77.3105 112.788C77.702 112.893 77.9974 112.944 78.1967 112.942C78.3959 112.941 78.5458 112.876 78.6463 112.748C78.7495 112.61 78.8425 112.387 78.9253 112.078L80.8261 104.984C80.92 104.634 80.9615 104.396 80.9506 104.272C80.9501 104.15 80.8818 104.055 80.7459 103.985C80.6099 103.915 80.3204 103.821 79.8774 103.703L76.7091 102.854C76.2455 102.729 75.9323 102.662 75.7694 102.652C75.6066 102.641 75.488 102.692 75.4137 102.805C75.3421 102.907 75.2607 103.128 75.1696 103.468L73.2689 110.562C73.186 110.871 73.1548 111.111 73.1752 111.282C73.2087 111.446 73.3061 111.577 73.4675 111.675C73.6391 111.777 73.9259 111.881 74.3277 111.989C74.3483 111.994 74.3503 112.028 74.3338 112.09C74.3172 112.151 74.2986 112.18 74.278 112.174C73.9586 112.088 73.7076 112.016 73.5249 111.956L72.4163 111.642L71.3612 111.376C71.173 111.337 70.914 111.273 70.5843 111.184C70.5637 111.179 70.5617 111.145 70.5782 111.083C70.5948 111.022 70.6134 110.993 70.634 110.999C71.0255 111.104 71.3209 111.155 71.5202 111.154C71.7297 111.154 71.8848 111.091 71.9852 110.963C72.0988 110.828 72.1969 110.606 72.2798 110.297L74.1474 103.327C74.233 103.007 74.2632 102.75 74.238 102.556C74.2231 102.364 74.1288 102.201 73.9551 102.066C73.7815 101.931 73.5092 101.814 73.1383 101.715C73.1177 101.709 73.1156 101.675 73.1322 101.614C73.1488 101.552 73.1673 101.524 73.188 101.529C73.5383 101.623 73.8717 101.718 74.1884 101.814C75.5223 102.193 76.9259 102.581 78.3993 102.975C79.7387 103.334 81.278 103.73 83.0172 104.163L83.5272 104.3C83.5581 104.308 83.5653 104.343 83.5487 104.405C83.5322 104.467 83.5084 104.493 83.4775 104.485C82.9418 104.342 82.5563 104.338 82.3212 104.473C82.0963 104.612 81.9218 104.913 81.7975 105.377L79.9299 112.347C79.8471 112.656 79.8159 112.896 79.8363 113.067C79.8697 113.231 79.9723 113.363 80.144 113.464C80.3156 113.565 80.5972 113.669 80.9887 113.773ZM84.818 113.59C84.7296 113.92 84.706 114.173 84.747 114.35C84.8011 114.519 84.9435 114.667 85.1742 114.796C85.4152 114.926 85.8087 115.065 86.3548 115.211C86.3857 115.22 86.3929 115.255 86.3763 115.316C86.3598 115.378 86.336 115.405 86.3051 115.397C85.8827 115.284 85.5544 115.19 85.3201 115.116L83.9797 114.741L82.9401 114.479C82.7416 114.436 82.4775 114.371 82.1478 114.283C82.1272 114.277 82.1251 114.244 82.1417 114.182C82.1583 114.12 82.1769 114.092 82.1975 114.097C82.589 114.202 82.8792 114.252 83.0682 114.248C83.2674 114.246 83.4173 114.181 83.5178 114.054C83.621 113.916 83.714 113.692 83.7969 113.383L85.7142 106.227C85.797 105.918 85.8268 105.683 85.8037 105.522C85.7805 105.362 85.6831 105.231 85.5114 105.129C85.3528 105.021 85.0778 104.914 84.6863 104.809C84.6657 104.803 84.6636 104.77 84.6802 104.708C84.6968 104.646 84.7154 104.618 84.736 104.624L85.5046 104.846C85.9318 104.983 86.2742 105.085 86.5317 105.154C86.7893 105.223 87.082 105.285 87.4096 105.34C87.5333 105.373 87.7304 105.42 88.0011 105.482C88.2745 105.533 88.5091 105.585 88.7048 105.637C89.6527 105.891 90.3534 106.305 90.8069 106.88C91.2707 107.457 91.3866 108.178 91.1547 109.043C90.9725 109.723 90.6493 110.25 90.185 110.622C89.7311 110.998 89.211 111.228 88.6248 111.314C88.0386 111.4 87.4674 111.368 86.911 111.219C86.6122 111.139 86.3718 111.047 86.1899 110.943C86.1589 110.935 86.1504 110.905 86.1642 110.853C86.1725 110.823 86.1859 110.793 86.2045 110.765C86.2334 110.739 86.2568 110.735 86.2746 110.751C86.4284 110.836 86.6083 110.906 86.8144 110.961C87.4944 111.144 88.1256 111.075 88.708 110.757C89.3006 110.44 89.7088 109.865 89.9324 109.031C90.1505 108.217 90.1001 107.519 89.7813 106.936C89.4653 106.343 88.9621 105.955 88.2718 105.77C87.9009 105.67 87.6275 105.619 87.4516 105.616C87.2757 105.613 87.131 105.679 87.0174 105.815C86.9067 105.94 86.8043 106.177 86.7105 106.527L84.818 113.59ZM95.4969 118.058C94.5387 117.802 93.7429 117.351 93.1095 116.706C92.4891 116.054 92.075 115.292 91.8672 114.419C91.6724 113.539 91.6965 112.645 91.9395 111.738C92.2238 110.677 92.7346 109.842 93.4719 109.234C94.212 108.615 95.0504 108.227 95.9871 108.069C96.9341 107.914 97.8455 107.954 98.7213 108.189C99.7001 108.451 100.498 108.913 101.116 109.576C101.736 110.228 102.141 110.982 102.331 111.839C102.532 112.699 102.519 113.552 102.292 114.396C102.041 115.334 101.563 116.128 100.859 116.779C100.154 117.429 99.3243 117.869 98.3683 118.099C97.4225 118.331 96.4654 118.318 95.4969 118.058ZM96.1248 117.879C96.8254 118.067 97.4995 118.065 98.1469 117.874C98.8047 117.686 99.3817 117.305 99.8777 116.731C100.384 116.16 100.759 115.421 101.002 114.514C101.261 113.546 101.311 112.637 101.152 111.789C100.993 110.94 100.641 110.216 100.094 109.617C99.5585 109.02 98.8527 108.605 97.9769 108.37C96.8436 108.067 95.8595 108.195 95.0247 108.755C94.1899 109.316 93.6013 110.235 93.259 111.512C92.9995 112.481 92.9423 113.415 93.0876 114.315C93.2356 115.205 93.5721 115.969 94.097 116.607C94.6246 117.234 95.3005 117.658 96.1248 117.879ZM110.77 111.417C111.265 111.55 111.752 111.73 112.232 111.958C112.712 112.186 113.078 112.428 113.33 112.683C113.412 112.749 113.456 112.81 113.463 112.867C113.482 112.917 113.482 113 113.462 113.116L113.169 114.892C113.16 114.923 113.129 114.937 113.075 114.933C113.023 114.92 112.996 114.896 112.994 114.862C112.98 114.008 112.714 113.313 112.195 112.776C111.689 112.232 110.983 111.839 110.076 111.596C109.293 111.386 108.561 111.377 107.88 111.57C107.202 111.753 106.619 112.116 106.131 112.659C105.643 113.202 105.289 113.885 105.068 114.709C104.811 115.668 104.769 116.606 104.943 117.525C105.127 118.447 105.49 119.234 106.032 119.888C106.586 120.544 107.254 120.977 108.037 121.187C108.778 121.385 109.476 121.357 110.13 121.101C110.786 120.836 111.372 120.319 111.887 119.551C111.895 119.52 111.92 119.511 111.961 119.522C111.992 119.53 112.017 119.542 112.034 119.558C112.063 119.576 112.074 119.596 112.068 119.617L111.384 121.305C111.33 121.423 111.282 121.499 111.24 121.532C111.212 121.557 111.145 121.578 111.041 121.594C110.009 121.737 108.978 121.671 107.948 121.395C106.711 121.063 105.742 120.539 105.04 119.82C104.351 119.095 103.914 118.293 103.73 117.415C103.545 116.538 103.568 115.671 103.797 114.816C104.051 113.868 104.541 113.089 105.268 112.477C105.995 111.866 106.847 111.47 107.823 111.29C108.799 111.11 109.781 111.152 110.77 111.417ZM117.668 123.999C116.71 123.742 115.914 123.292 115.28 122.647C114.66 121.995 114.246 121.233 114.038 120.36C113.843 119.479 113.868 118.586 114.11 117.679C114.395 116.618 114.906 115.783 115.643 115.174C116.383 114.555 117.221 114.167 118.158 114.01C119.105 113.855 120.017 113.895 120.892 114.129C121.871 114.392 122.669 114.854 123.287 115.516C123.907 116.169 124.312 116.923 124.502 117.78C124.703 118.64 124.69 119.492 124.463 120.337C124.212 121.275 123.734 122.069 123.03 122.719C122.326 123.37 121.495 123.81 120.539 124.04C119.594 124.272 118.636 124.259 117.668 123.999ZM118.296 123.82C118.996 124.007 119.67 124.006 120.318 123.815C120.976 123.627 121.553 123.246 122.049 122.672C122.555 122.101 122.93 121.362 123.173 120.455C123.432 119.487 123.482 118.578 123.323 117.729C123.164 116.88 122.812 116.157 122.265 115.557C121.73 114.961 121.024 114.546 120.148 114.311C119.015 114.007 118.031 114.136 117.196 114.696C116.361 115.256 115.772 116.175 115.43 117.453C115.17 118.421 115.113 119.356 115.259 120.256C115.407 121.146 115.743 121.91 116.268 122.547C116.796 123.175 117.472 123.599 118.296 123.82ZM130.482 121.403C131.28 121.683 131.861 122.132 132.226 122.748C132.604 123.358 132.697 124.018 132.507 124.729C132.36 125.275 132.094 125.733 131.707 126.105C131.321 126.476 130.856 126.727 130.313 126.857C129.783 126.98 129.23 126.965 128.653 126.81C128.313 126.719 127.946 126.604 127.552 126.465C127.411 126.417 127.244 126.361 127.051 126.298C126.858 126.235 126.643 126.172 126.406 126.109L125.351 125.842C125.162 125.803 124.898 125.738 124.558 125.647C124.538 125.641 124.536 125.607 124.552 125.546C124.569 125.484 124.587 125.456 124.608 125.461C125 125.566 125.295 125.618 125.494 125.616C125.696 125.604 125.853 125.535 125.963 125.41C126.074 125.285 126.171 125.068 126.254 124.759L128.171 117.604C128.254 117.295 128.279 117.058 128.245 116.895C128.222 116.734 128.125 116.603 127.953 116.502C127.784 116.39 127.509 116.283 127.128 116.181C127.097 116.173 127.09 116.138 127.106 116.076C127.123 116.014 127.147 115.987 127.177 115.996L127.931 116.214C128.358 116.351 128.705 116.455 128.973 116.527C129.159 116.576 129.33 116.617 129.487 116.648C129.655 116.682 129.797 116.709 129.913 116.729C130.241 116.783 130.544 116.848 130.822 116.922C131.687 117.154 132.285 117.519 132.616 118.016C132.949 118.503 133.034 119.05 132.871 119.658C132.739 120.153 132.461 120.553 132.036 120.859C131.615 121.155 131.097 121.336 130.482 121.403ZM130.42 117.063C130.152 116.991 129.945 116.958 129.8 116.963C129.666 116.972 129.547 117.045 129.443 117.183C129.34 117.321 129.243 117.56 129.152 117.9L128.365 120.836L129.056 121.038C129.809 121.239 130.416 121.198 130.879 120.913C131.344 120.618 131.663 120.151 131.834 119.513C131.988 118.936 131.953 118.429 131.727 117.993C131.515 117.55 131.079 117.24 130.42 117.063ZM128.495 126.47C129.248 126.671 129.855 126.63 130.318 126.345C130.794 126.053 131.128 125.546 131.321 124.825C131.531 124.042 131.469 123.346 131.135 122.738C130.812 122.132 130.249 121.716 129.449 121.491C129.122 121.392 128.727 121.297 128.266 121.207L127.243 125.024C127.171 125.292 127.152 125.508 127.185 125.671C127.229 125.838 127.35 125.986 127.547 126.116C127.757 126.239 128.073 126.357 128.495 126.47ZM147.172 131.507C147.193 131.513 147.195 131.546 147.178 131.608C147.161 131.67 147.143 131.698 147.122 131.693C146.793 131.604 146.536 131.53 146.354 131.47L145.291 131.169L144.159 130.882C143.971 130.843 143.722 130.782 143.413 130.699C143.392 130.693 143.39 130.66 143.407 130.598C143.424 130.536 143.442 130.508 143.463 130.513C143.865 130.621 144.165 130.674 144.364 130.672C144.564 130.67 144.714 130.605 144.814 130.478C144.928 130.343 145.026 130.12 145.109 129.811L146.819 123.428L139.421 128.039L139.359 128.271C139.277 128.58 139.245 128.82 139.266 128.991C139.299 129.155 139.402 129.287 139.573 129.388C139.745 129.49 140.032 129.594 140.434 129.702C140.454 129.707 140.456 129.741 140.44 129.803C140.423 129.864 140.405 129.893 140.384 129.887C140.065 129.802 139.813 129.729 139.631 129.669L138.522 129.355L137.452 129.085C137.263 129.045 137.004 128.982 136.675 128.893C136.654 128.888 136.652 128.854 136.669 128.792C136.685 128.73 136.704 128.702 136.724 128.708C137.116 128.813 137.411 128.864 137.611 128.862C137.82 128.863 137.975 128.8 138.076 128.672C138.189 128.537 138.287 128.315 138.37 128.006L140.288 120.85C140.37 120.541 140.395 120.305 140.362 120.141C140.338 119.98 140.241 119.849 140.069 119.748C139.9 119.637 139.62 119.528 139.229 119.424C139.208 119.418 139.206 119.384 139.223 119.323C139.239 119.261 139.258 119.233 139.278 119.238L140.062 119.465C140.49 119.601 140.832 119.704 141.09 119.773C141.388 119.853 141.767 119.944 142.226 120.045L142.972 120.228C142.993 120.233 142.995 120.267 142.978 120.329C142.962 120.391 142.943 120.419 142.922 120.413C142.531 120.308 142.229 120.261 142.017 120.27C141.815 120.282 141.657 120.356 141.543 120.491C141.443 120.619 141.351 120.837 141.268 121.146L139.562 127.514L146.951 122.934L147.018 122.687C147.1 122.378 147.125 122.141 147.092 121.978C147.071 121.807 146.977 121.665 146.808 121.554C146.639 121.442 146.353 121.333 145.952 121.225C145.931 121.219 145.929 121.186 145.945 121.124C145.962 121.062 145.981 121.034 146.001 121.039L146.739 121.254C147.187 121.396 147.56 121.507 147.859 121.587C148.116 121.656 148.475 121.741 148.934 121.842L149.71 122.033C149.731 122.039 149.733 122.073 149.716 122.134C149.7 122.196 149.681 122.224 149.661 122.219C149.269 122.114 148.972 122.068 148.77 122.08C148.571 122.081 148.416 122.145 148.305 122.27C148.205 122.397 148.113 122.616 148.03 122.925L146.113 130.081C146.03 130.39 145.999 130.63 146.019 130.801C146.053 130.964 146.155 131.097 146.327 131.198C146.499 131.299 146.78 131.402 147.172 131.507ZM28.1824 119.294C28.2133 119.303 28.2205 119.338 28.2039 119.399C28.1873 119.461 28.1636 119.488 28.1327 119.48C27.803 119.391 27.5468 119.317 27.3641 119.257L26.3173 118.96L25.2159 118.682C25.0276 118.642 24.7738 118.58 24.4544 118.494C24.4235 118.486 24.4164 118.451 24.4329 118.389C24.4495 118.327 24.4732 118.3 24.5041 118.309C24.8956 118.414 25.191 118.465 25.3903 118.463C25.5896 118.461 25.7394 118.397 25.8399 118.269C25.9431 118.131 26.0362 117.908 26.119 117.598L28.0197 110.505C28.1136 110.154 28.1551 109.917 28.1443 109.793C28.1437 109.671 28.0755 109.575 27.9395 109.506C27.8036 109.436 27.5141 109.342 27.071 109.223L23.9028 108.375C23.4391 108.25 23.1259 108.183 22.9631 108.172C22.8002 108.162 22.6817 108.213 22.6073 108.326C22.5357 108.428 22.4544 108.649 22.3633 108.989L20.4625 116.083C20.3797 116.392 20.3485 116.632 20.3689 116.803C20.4024 116.967 20.4998 117.098 20.6611 117.196C20.8328 117.297 21.1195 117.402 21.5213 117.509C21.542 117.515 21.544 117.549 21.5274 117.61C21.5108 117.672 21.4923 117.7 21.4717 117.695C21.1523 117.609 20.9012 117.537 20.7185 117.477L19.6099 117.163L18.5548 116.897C18.3666 116.857 18.1077 116.794 17.778 116.705C17.7573 116.7 17.7553 116.666 17.7719 116.604C17.7885 116.542 17.807 116.514 17.8276 116.52C18.2192 116.625 18.5146 116.676 18.7138 116.674C18.9234 116.675 19.0784 116.612 19.1789 116.484C19.2924 116.349 19.3906 116.127 19.4734 115.818L21.341 108.848C21.4266 108.528 21.4568 108.271 21.4316 108.077C21.4167 107.885 21.3225 107.722 21.1488 107.587C20.9751 107.452 20.7028 107.335 20.3319 107.236C20.3113 107.23 20.3093 107.196 20.3258 107.135C20.3424 107.073 20.361 107.045 20.3816 107.05C20.7319 107.144 21.0654 107.239 21.382 107.335C22.7159 107.714 24.1195 108.101 25.5929 108.496C26.9323 108.855 28.4716 109.251 30.2109 109.684L30.7209 109.82C30.7518 109.829 30.759 109.864 30.7424 109.926C30.7258 109.987 30.7021 110.014 30.6712 110.006C30.1354 109.862 29.75 109.858 29.5148 109.994C29.29 110.133 29.1154 110.434 28.9912 110.897L27.1235 117.868C27.0407 118.177 27.0095 118.417 27.0299 118.588C27.0634 118.751 27.166 118.884 27.3376 118.985C27.5093 119.086 27.7909 119.189 28.1824 119.294ZM32.0116 119.111C31.9233 119.441 31.8996 119.694 31.9406 119.871C31.9947 120.04 32.1371 120.188 32.3678 120.316C32.6088 120.447 33.0024 120.586 33.5485 120.732C33.5794 120.74 33.5865 120.775 33.57 120.837C33.5534 120.899 33.5297 120.926 33.4988 120.918C33.0763 120.804 32.748 120.711 32.5138 120.637L31.1734 120.261L30.1338 119.999C29.9352 119.957 29.6711 119.892 29.3414 119.804C29.3208 119.798 29.3188 119.764 29.3354 119.703C29.3519 119.641 29.3705 119.613 29.3911 119.618C29.7826 119.723 30.0729 119.773 30.2618 119.769C30.4611 119.767 30.611 119.702 30.7114 119.574C30.8147 119.436 30.9077 119.213 30.9905 118.904L32.9078 111.748C32.9907 111.439 33.0205 111.204 32.9973 111.043C32.9741 110.883 32.8767 110.751 32.7051 110.65C32.5465 110.542 32.2714 110.435 31.8799 110.33C31.8593 110.324 31.8573 110.291 31.8738 110.229C31.8904 110.167 31.909 110.139 31.9296 110.144L32.6982 110.367C33.1254 110.503 33.4678 110.606 33.7254 110.675C33.983 110.744 34.2756 110.806 34.6033 110.861C34.7269 110.894 34.9241 110.941 35.1947 111.003C35.4681 111.054 35.7027 111.106 35.8985 111.158C36.8464 111.412 37.547 111.826 38.0005 112.4C38.4643 112.978 38.5803 113.699 38.3484 114.564C38.1662 115.244 37.8429 115.771 37.3787 116.143C36.9248 116.518 36.4047 116.749 35.8185 116.835C35.2323 116.921 34.661 116.889 34.1046 116.74C33.8058 116.66 33.5655 116.568 33.3835 116.464C33.3526 116.456 33.344 116.426 33.3578 116.374C33.3661 116.343 33.3796 116.314 33.3981 116.286C33.427 116.26 33.4504 116.256 33.4682 116.271C33.6221 116.357 33.802 116.427 34.0081 116.482C34.6881 116.664 35.3193 116.596 35.9016 116.277C36.4943 115.961 36.9024 115.386 37.126 114.551C37.3441 113.737 37.2938 113.039 36.975 112.457C36.6589 111.864 36.1557 111.476 35.4654 111.291C35.0945 111.191 34.8211 111.14 34.6452 111.137C34.4693 111.134 34.3246 111.2 34.2111 111.335C34.1003 111.46 33.998 111.698 33.9041 112.048L32.0116 119.111ZM45.0419 121.542C45.0474 121.522 45.0707 121.517 45.112 121.528C45.1429 121.536 45.1672 121.548 45.1851 121.564C45.2132 121.583 45.2246 121.602 45.219 121.623C44.9524 122.247 44.7238 122.915 44.5333 123.626C44.5112 123.708 44.4741 123.765 44.4218 123.795C44.3826 123.817 44.3166 123.816 44.2239 123.791L37.7484 122.056C37.7277 122.051 37.7257 122.017 37.7423 121.955C37.7589 121.893 37.7774 121.865 37.798 121.871C38.1896 121.976 38.4798 122.026 38.6688 122.021C38.868 122.019 39.0179 121.955 39.1184 121.827C39.2319 121.692 39.3301 121.47 39.4129 121.161L41.3302 114.005C41.413 113.696 41.4377 113.46 41.4043 113.296C41.3811 113.135 41.2837 113.004 41.112 112.903C40.9534 112.794 40.6784 112.687 40.2868 112.582C40.2662 112.577 40.2642 112.543 40.2808 112.481C40.2973 112.42 40.3159 112.391 40.3365 112.397L46.5494 114.062C46.6421 114.087 46.676 114.145 46.6512 114.238L46.1728 116.147C46.1645 116.178 46.1332 116.192 46.0789 116.188C46.0274 116.175 46.0006 116.151 45.9986 116.117C46.114 115.563 46.0624 115.096 45.8436 114.717C45.6277 114.328 45.2724 114.067 44.7778 113.935L43.8351 113.682C43.4745 113.586 43.1983 113.545 43.0066 113.56C42.8279 113.567 42.6832 113.633 42.5725 113.758C42.4747 113.875 42.3886 114.073 42.3141 114.351L41.4734 117.489L43.3589 117.994C43.8535 118.126 44.2259 118.138 44.4761 118.028C44.7367 117.921 44.9194 117.672 45.0243 117.281C45.0298 117.26 45.0635 117.258 45.1253 117.275C45.1871 117.291 45.2153 117.31 45.2097 117.33L44.8589 118.578C44.7788 118.877 44.7232 119.105 44.6921 119.262L44.5088 120.008C44.5033 120.029 44.4696 120.031 44.4078 120.014C44.346 119.998 44.3178 119.979 44.3233 119.958C44.4448 119.505 44.4184 119.15 44.2442 118.894C44.0803 118.64 43.7408 118.444 43.2256 118.306L41.3865 117.813L40.434 121.368C40.3567 121.656 40.331 121.876 40.357 122.026C40.3829 122.177 40.4714 122.3 40.6224 122.396C40.7735 122.491 41.0242 122.586 41.3745 122.68L42.6109 123.011C43.1054 123.144 43.5645 123.079 43.988 122.817C44.4116 122.555 44.7629 122.13 45.0419 121.542ZM55.6191 126.646C55.7119 126.671 55.7606 126.695 55.7654 126.718C55.7832 126.734 55.7797 126.788 55.7549 126.881C55.7411 126.933 55.6908 127.079 55.6039 127.321C55.3772 127.879 55.152 128.575 54.9284 129.409C54.9146 129.461 54.8768 129.478 54.8149 129.462C54.7531 129.445 54.7291 129.411 54.7429 129.36C54.9803 128.474 54.9585 127.772 54.6774 127.255C54.3963 126.738 53.8179 126.362 52.9421 126.127L48.1048 124.831C47.4454 124.655 46.8843 124.708 46.4215 124.993C45.956 125.288 45.5976 125.904 45.3464 126.842C45.3326 126.893 45.2948 126.911 45.233 126.894C45.1711 126.878 45.1471 126.844 45.1609 126.792C45.3487 126.092 45.4897 125.4 45.5839 124.719C45.6055 124.515 45.6383 124.33 45.6825 124.166C45.7046 124.083 45.7235 124.033 45.7394 124.015C45.7655 124 45.8146 124.002 45.8867 124.022C46.6801 124.234 47.4833 123.936 48.2964 123.127C49.1123 122.307 49.8254 121.295 50.4356 120.089C51.0561 118.886 51.4837 117.846 51.7184 116.971C51.7957 116.682 51.8203 116.446 51.7924 116.262C51.7775 116.07 51.6691 115.897 51.4673 115.744C51.2683 115.58 50.9369 115.436 50.4733 115.312C50.4527 115.306 50.4506 115.273 50.4672 115.211C50.4838 115.149 50.5023 115.121 50.523 115.126L57.8794 117.098C57.9001 117.103 57.9021 117.137 57.8855 117.199C57.8689 117.26 57.8504 117.289 57.8298 117.283C57.4382 117.178 57.1415 117.132 56.9394 117.144C56.7402 117.146 56.5852 117.209 56.4744 117.334C56.3739 117.462 56.2823 117.68 56.1994 117.989L54.2821 125.145C54.1744 125.547 54.1247 125.815 54.1327 125.949C54.1408 126.084 54.2386 126.193 54.4261 126.277C54.6136 126.36 55.0112 126.483 55.6191 126.646ZM55.1866 117.751C55.2805 117.401 55.322 117.163 55.3111 117.039C55.3106 116.917 55.241 116.827 55.1022 116.768C54.9663 116.698 54.6768 116.604 54.2337 116.485L53.4764 116.282C53.1674 116.199 52.9386 116.188 52.7901 116.247C52.6444 116.297 52.5219 116.424 52.4227 116.629C52.3235 116.835 52.1681 117.229 51.9565 117.813C51.7318 118.404 51.4024 119.139 50.9685 120.016C50.5477 120.886 50.0299 121.747 49.4153 122.598C48.811 123.452 48.1882 124.025 47.5468 124.317L51.7505 125.444C52.2244 125.571 52.5363 125.643 52.686 125.661C52.8489 125.672 52.9661 125.626 53.0377 125.524C53.1092 125.421 53.192 125.195 53.2858 124.845L55.1866 117.751ZM56.9921 127.411C56.7654 127.351 56.5924 127.255 56.473 127.123C56.3639 126.995 56.3355 126.832 56.388 126.637C56.4763 126.307 56.742 126.201 57.1851 126.32L57.5096 126.407C58.0969 126.564 58.7025 126.324 59.3265 125.685C59.9635 125.038 60.5407 124.182 61.058 123.117C61.5856 122.055 61.9902 120.998 62.2717 119.947C62.3987 119.474 62.3882 119.101 62.2401 118.829C62.0948 118.547 61.7182 118.325 61.1103 118.162C61.0794 118.154 61.0722 118.119 61.0888 118.057C61.1053 117.995 61.1291 117.968 61.16 117.977L68.5474 119.956C68.5783 119.964 68.5855 119.999 68.5689 120.061C68.5523 120.123 68.5286 120.15 68.4977 120.141C68.1062 120.037 67.8094 119.99 67.6074 120.002C67.4081 120.004 67.2531 120.068 67.1423 120.192C67.0418 120.32 66.9502 120.539 66.8674 120.848L64.95 128.003C64.8672 128.312 64.836 128.552 64.8564 128.723C64.8899 128.887 64.9925 129.019 65.1641 129.121C65.3358 129.222 65.6174 129.325 66.0089 129.43C66.0398 129.438 66.047 129.473 66.0304 129.535C66.0138 129.597 65.9901 129.624 65.9592 129.615C65.6398 129.53 65.3887 129.457 65.206 129.397L64.1438 129.096L63.0424 128.817C62.8541 128.778 62.6003 128.715 62.2809 128.63C62.25 128.621 62.2429 128.586 62.2594 128.525C62.276 128.463 62.2997 128.436 62.3306 128.444C62.7325 128.552 63.0278 128.603 63.2168 128.599C63.4161 128.597 63.5659 128.532 63.6664 128.405C63.7799 128.269 63.8781 128.047 63.9609 127.738L65.8617 120.644C65.9556 120.294 65.9971 120.057 65.9862 119.932C65.9754 119.808 65.902 119.711 65.766 119.641C65.6301 119.572 65.3406 119.478 64.8975 119.359L64.1093 119.148C63.8002 119.065 63.5615 119.029 63.3932 119.039C63.2248 119.049 63.0811 119.132 62.962 119.288C62.8457 119.433 62.7393 119.686 62.6427 120.047C62.3611 121.098 61.9409 122.233 61.3822 123.453C60.8338 124.675 60.1737 125.696 59.4018 126.517C58.6402 127.339 57.8369 127.638 56.9921 127.411ZM72.1362 131.469C71.178 131.212 70.3822 130.762 69.7488 130.117C69.1284 129.465 68.7143 128.703 68.5065 127.83C68.3117 126.949 68.3358 126.056 68.5787 125.149C68.8631 124.088 69.3739 123.253 70.1112 122.644C70.8513 122.026 71.6897 121.637 72.6264 121.48C73.5734 121.325 74.4848 121.365 75.3606 121.599C76.3394 121.862 77.1376 122.324 77.7552 122.986C78.3755 123.639 78.7807 124.393 78.9707 125.25C79.171 126.11 79.1579 126.962 78.9316 127.807C78.6803 128.745 78.2025 129.539 77.4982 130.189C76.7938 130.84 75.9636 131.28 75.0076 131.51C74.0618 131.742 73.1047 131.729 72.1362 131.469ZM72.7641 131.29C73.4647 131.477 74.1388 131.476 74.7862 131.285C75.444 131.097 76.0209 130.716 76.517 130.142C77.0234 129.571 77.3981 128.832 77.641 127.925C77.9005 126.957 77.9508 126.048 77.7917 125.199C77.6326 124.351 77.28 123.627 76.7337 123.027C76.1978 122.431 75.492 122.016 74.6162 121.781C73.4829 121.477 72.4988 121.606 71.664 122.166C70.8292 122.726 70.2406 123.645 69.8983 124.923C69.6387 125.891 69.5816 126.826 69.7269 127.726C69.8749 128.616 70.2114 129.38 70.7363 130.017C71.2639 130.645 71.9398 131.069 72.7641 131.29ZM93.045 136.674C93.0656 136.68 93.0676 136.713 93.0511 136.775C93.0345 136.837 93.0159 136.865 92.9953 136.86L91.0326 136.334C90.9089 136.301 90.8104 136.236 90.737 136.139C90.6664 136.031 90.5605 135.788 90.4194 135.407C90.2914 135.02 90.0477 134.281 89.6882 133.191C89.4103 132.332 89.2004 131.735 89.0586 131.399C88.9195 131.052 88.7453 130.796 88.5359 130.629C88.3396 130.455 88.0354 130.313 87.6233 130.202L87.2791 130.127L86.3143 133.728C86.2287 134.047 86.1975 134.287 86.2206 134.448C86.2438 134.609 86.3361 134.738 86.4974 134.837C86.6691 134.938 86.9558 135.043 87.3576 135.15C87.3886 135.159 87.3957 135.194 87.3792 135.255C87.3626 135.317 87.3389 135.344 87.308 135.336C86.9886 135.25 86.7375 135.177 86.5548 135.117L85.4617 134.808L84.4066 134.542C84.2184 134.502 83.9594 134.438 83.6297 134.35C83.6091 134.345 83.6071 134.311 83.6236 134.249C83.6402 134.187 83.6588 134.159 83.6794 134.165C84.0812 134.272 84.3818 134.325 84.581 134.323C84.7803 134.322 84.9302 134.257 85.0306 134.129C85.1442 133.994 85.2423 133.772 85.3252 133.463L86.2859 129.877C86.106 129.807 85.9799 129.762 85.9078 129.743C85.506 129.635 85.1714 129.606 84.9041 129.656C84.6498 129.698 84.372 129.828 84.0708 130.046C83.7799 130.266 83.3009 130.673 82.6337 131.267L82.1921 131.679C81.6507 132.174 81.2146 132.566 80.8838 132.852C80.5557 133.129 80.3408 133.292 80.239 133.342C80.14 133.382 80.0287 133.385 79.9051 133.352L77.9578 132.83C77.9372 132.825 77.9352 132.791 77.9517 132.729C77.9683 132.667 77.9869 132.639 78.0075 132.645C78.4018 132.739 78.7732 132.734 79.1216 132.629C79.4832 132.516 79.8551 132.323 80.2375 132.05C80.6226 131.766 81.1474 131.333 81.8118 130.749C82.5815 130.061 83.1091 129.617 83.3944 129.417C83.6929 129.21 83.9974 129.104 84.308 129.099L83.2162 125.941C82.9546 125.186 82.6471 124.623 82.2937 124.252C81.9506 123.884 81.4905 123.623 80.9136 123.468C80.893 123.463 80.8909 123.429 80.9075 123.367C80.9241 123.305 80.9427 123.277 80.9633 123.283L81.5309 123.452C81.8963 123.572 82.249 123.677 82.589 123.768C82.9291 123.859 83.3079 123.95 83.7255 124.04L84.4406 124.215C84.4715 124.223 84.4787 124.258 84.4621 124.32C84.4455 124.382 84.4218 124.408 84.3909 124.4C84.1024 124.323 83.8829 124.297 83.7324 124.323C83.595 124.341 83.5083 124.418 83.4724 124.552C83.4393 124.675 83.4466 124.854 83.4944 125.087C83.5526 125.324 83.6477 125.67 83.7797 126.125L84.645 129.139C84.7535 129.146 84.9366 129.184 85.1942 129.253L86.04 129.497C86.0991 129.523 86.2059 129.558 86.3604 129.599L87.2425 126.307C87.3226 126.008 87.3355 125.774 87.2815 125.605C87.2405 125.429 87.1238 125.287 86.9316 125.18C86.7421 125.063 86.4464 124.951 86.0446 124.843C86.024 124.838 86.0219 124.804 86.0385 124.742C86.0551 124.68 86.0737 124.652 86.0943 124.658L86.9247 124.897C87.3931 125.044 87.7613 125.154 88.0291 125.226C88.3279 125.306 88.7274 125.402 89.2274 125.514L90.0507 125.718C90.0713 125.723 90.0733 125.757 90.0568 125.819C90.0402 125.881 90.0216 125.909 90.001 125.903C89.6095 125.798 89.2972 125.748 89.0643 125.752C88.8417 125.758 88.6633 125.826 88.5292 125.956C88.4053 126.089 88.3034 126.304 88.2233 126.603L87.3495 129.864C87.9939 130.015 88.3778 130.106 88.5015 130.14C88.7591 130.209 88.938 130.262 89.0383 130.3L91.2866 128.153C91.6257 127.835 91.8758 127.582 92.0368 127.393C92.2081 127.207 92.3103 127.052 92.3435 126.929C92.3794 126.795 92.3424 126.685 92.2326 126.601C92.1255 126.506 91.9277 126.42 91.6392 126.342C91.6083 126.334 91.6011 126.299 91.6177 126.237C91.6343 126.175 91.658 126.149 91.6889 126.157L92.3957 126.363C92.8023 126.494 93.1756 126.605 93.5156 126.696C93.8556 126.787 94.2138 126.872 94.5903 126.951L95.1662 127.089C95.1868 127.094 95.1889 127.128 95.1723 127.19C95.1557 127.251 95.1371 127.28 95.1165 127.274C94.5396 127.119 94.0053 127.114 93.5139 127.259C93.0327 127.406 92.4902 127.741 91.8863 128.264L89.3462 130.449C89.6051 130.595 89.8058 130.815 89.9484 131.107C90.091 131.399 90.304 131.964 90.5874 132.802L90.6983 133.13C90.9818 133.968 91.2195 134.606 91.4113 135.044C91.6059 135.471 91.8264 135.823 92.0728 136.099C92.3322 136.367 92.6563 136.559 93.045 136.674ZM101.096 136.562C101.101 136.541 101.125 136.537 101.166 136.548C101.197 136.556 101.221 136.568 101.239 136.584C101.267 136.602 101.278 136.622 101.273 136.643C101.006 137.267 100.778 137.934 100.587 138.645C100.565 138.728 100.528 138.784 100.476 138.814C100.436 138.837 100.371 138.836 100.278 138.811L93.8022 137.076C93.7816 137.07 93.7796 137.037 93.7962 136.975C93.8127 136.913 93.8313 136.885 93.8519 136.89C94.2434 136.995 94.5337 137.045 94.7226 137.041C94.9219 137.039 95.0718 136.974 95.1722 136.847C95.2858 136.711 95.384 136.489 95.4668 136.18L97.3841 129.025C97.4669 128.715 97.4916 128.479 97.4581 128.316C97.435 128.155 97.3376 128.024 97.1659 127.923C97.0073 127.814 96.7323 127.707 96.3407 127.602C96.3201 127.596 96.3181 127.563 96.3347 127.501C96.3512 127.439 96.3698 127.411 96.3904 127.417L102.603 129.081C102.696 129.106 102.73 129.165 102.705 129.258L102.227 131.167C102.218 131.198 102.187 131.211 102.133 131.208C102.081 131.194 102.055 131.17 102.052 131.137C102.168 130.582 102.116 130.116 101.898 129.737C101.682 129.348 101.326 129.087 100.832 128.954L99.889 128.702C99.5284 128.605 99.2522 128.564 99.0605 128.579C98.8818 128.587 98.7371 128.653 98.6263 128.778C98.5286 128.895 98.4425 129.093 98.368 129.371L97.5273 132.508L99.4128 133.014C99.9074 133.146 100.28 133.157 100.53 133.048C100.791 132.941 100.973 132.692 101.078 132.3C101.084 132.28 101.117 132.278 101.179 132.294C101.241 132.311 101.269 132.329 101.264 132.35L100.913 133.598C100.833 133.896 100.777 134.124 100.746 134.282L100.563 135.028C100.557 135.048 100.523 135.05 100.462 135.034C100.4 135.017 100.372 134.999 100.377 134.978C100.499 134.525 100.472 134.17 100.298 133.913C100.134 133.66 99.7946 133.464 99.2795 133.326L97.4404 132.833L96.4879 136.387C96.4106 136.676 96.3849 136.895 96.4108 137.046C96.4368 137.196 96.5253 137.32 96.6763 137.415C96.8274 137.511 97.078 137.606 97.4283 137.7L98.6647 138.031C99.1593 138.163 99.6183 138.099 100.042 137.837C100.465 137.575 100.817 137.15 101.096 136.562ZM112.647 141.926C112.678 141.935 112.685 141.97 112.668 142.032C112.652 142.093 112.628 142.12 112.597 142.112C112.278 142.026 112.027 141.953 111.844 141.893L110.782 141.592L109.649 141.305C109.461 141.266 109.212 141.205 108.903 141.122C108.872 141.114 108.865 141.079 108.882 141.017C108.898 140.955 108.922 140.928 108.953 140.937C109.355 141.044 109.655 141.097 109.855 141.095C110.054 141.094 110.204 141.029 110.304 140.901C110.418 140.766 110.516 140.544 110.599 140.235L111.568 136.618L105.633 135.028L104.664 138.645C104.581 138.954 104.55 139.194 104.57 139.365C104.604 139.528 104.706 139.661 104.878 139.762C105.05 139.863 105.337 139.968 105.738 140.075C105.759 140.081 105.761 140.115 105.744 140.176C105.728 140.238 105.709 140.266 105.689 140.261C105.369 140.175 105.118 140.102 104.936 140.042L103.827 139.729L102.756 139.459C102.568 139.419 102.309 139.355 101.98 139.267C101.959 139.261 101.957 139.228 101.973 139.166C101.99 139.104 102.009 139.076 102.029 139.081C102.421 139.186 102.716 139.238 102.915 139.236C103.125 139.237 103.28 139.174 103.38 139.046C103.494 138.911 103.592 138.689 103.675 138.379L105.592 131.224C105.675 130.915 105.7 130.678 105.666 130.515C105.643 130.354 105.546 130.223 105.374 130.122C105.205 130.01 104.925 129.902 104.533 129.797C104.513 129.792 104.511 129.758 104.527 129.696C104.544 129.634 104.563 129.606 104.583 129.612L105.367 129.838C105.794 129.975 106.137 130.078 106.394 130.147C106.693 130.227 107.072 130.317 107.531 130.418L108.277 130.602C108.297 130.607 108.299 130.641 108.283 130.703C108.266 130.764 108.248 130.793 108.227 130.787C107.836 130.682 107.534 130.634 107.321 130.644C107.119 130.656 106.962 130.729 106.848 130.865C106.748 130.992 106.656 131.211 106.573 131.52L105.72 134.704L111.655 136.294L112.508 133.11C112.591 132.801 112.615 132.565 112.582 132.401C112.561 132.23 112.467 132.089 112.298 131.977C112.129 131.866 111.844 131.756 111.442 131.648C111.411 131.64 111.404 131.605 111.42 131.543C111.437 131.481 111.461 131.455 111.491 131.463L112.229 131.677C112.677 131.819 113.05 131.93 113.349 132.01C113.627 132.085 113.985 132.17 114.424 132.265L115.185 132.453C115.216 132.461 115.223 132.496 115.207 132.558C115.19 132.62 115.166 132.646 115.135 132.638C114.744 132.533 114.447 132.487 114.245 132.499C114.046 132.501 113.891 132.564 113.78 132.689C113.68 132.817 113.588 133.035 113.505 133.344L111.588 140.5C111.505 140.809 111.474 141.049 111.494 141.22C111.528 141.384 111.63 141.516 111.802 141.617C111.974 141.718 112.255 141.821 112.647 141.926ZM124.204 145.023C124.224 145.029 124.226 145.062 124.21 145.124C124.193 145.186 124.175 145.214 124.154 145.209C123.824 145.12 123.568 145.046 123.385 144.986L122.323 144.685L121.191 144.398C121.003 144.359 120.754 144.297 120.445 144.215C120.424 144.209 120.422 144.175 120.439 144.114C120.455 144.052 120.474 144.024 120.494 144.029C120.896 144.137 121.197 144.19 121.396 144.188C121.595 144.186 121.745 144.121 121.846 143.994C121.959 143.858 122.057 143.636 122.14 143.327L123.85 136.944L116.453 141.555L116.391 141.787C116.308 142.096 116.277 142.336 116.297 142.507C116.331 142.671 116.433 142.803 116.605 142.904C116.777 143.005 117.063 143.11 117.465 143.218C117.486 143.223 117.488 143.257 117.471 143.319C117.455 143.38 117.436 143.409 117.416 143.403C117.096 143.317 116.845 143.245 116.662 143.185L115.554 142.871L114.483 142.601C114.295 142.561 114.036 142.497 113.706 142.409C113.686 142.404 113.684 142.37 113.7 142.308C113.717 142.246 113.736 142.218 113.756 142.224C114.148 142.329 114.443 142.38 114.642 142.378C114.852 142.379 115.007 142.316 115.107 142.188C115.221 142.053 115.319 141.831 115.402 141.522L117.319 134.366C117.402 134.057 117.427 133.821 117.393 133.657C117.37 133.496 117.273 133.365 117.101 133.264C116.932 133.153 116.652 133.044 116.26 132.939C116.24 132.934 116.238 132.9 116.254 132.838C116.271 132.777 116.29 132.749 116.31 132.754L117.094 132.981C117.521 133.117 117.864 133.22 118.121 133.289C118.42 133.369 118.799 133.46 119.258 133.56L120.004 133.744C120.024 133.749 120.026 133.783 120.01 133.845C119.993 133.907 119.975 133.935 119.954 133.929C119.563 133.824 119.261 133.777 119.048 133.786C118.846 133.798 118.689 133.872 118.575 134.007C118.475 134.135 118.383 134.353 118.3 134.662L116.594 141.029L123.983 136.45L124.049 136.203C124.132 135.893 124.157 135.657 124.123 135.494C124.103 135.322 124.008 135.181 123.839 135.07C123.67 134.958 123.385 134.849 122.983 134.741C122.963 134.735 122.961 134.702 122.977 134.64C122.994 134.578 123.012 134.55 123.033 134.555L123.771 134.77C124.218 134.912 124.592 135.023 124.891 135.103C125.148 135.172 125.506 135.257 125.965 135.358L126.742 135.549C126.763 135.555 126.765 135.588 126.748 135.65C126.732 135.712 126.713 135.74 126.692 135.735C126.301 135.63 126.004 135.583 125.802 135.596C125.603 135.597 125.448 135.661 125.337 135.786C125.237 135.913 125.145 136.132 125.062 136.441L123.145 143.596C123.062 143.906 123.031 144.146 123.051 144.317C123.085 144.48 123.187 144.613 123.359 144.714C123.531 144.815 123.812 144.918 124.204 145.023ZM135.749 148.117C135.77 148.122 135.772 148.156 135.756 148.218C135.739 148.28 135.72 148.308 135.7 148.302C135.37 148.214 135.114 148.14 134.931 148.08L133.869 147.779L132.737 147.492C132.548 147.452 132.3 147.391 131.991 147.308C131.97 147.303 131.968 147.269 131.985 147.207C132.001 147.146 132.02 147.117 132.04 147.123C132.442 147.231 132.743 147.283 132.942 147.282C133.141 147.28 133.291 147.215 133.392 147.087C133.505 146.952 133.603 146.73 133.686 146.421L135.396 140.038L127.999 144.649L127.937 144.88C127.854 145.19 127.823 145.43 127.843 145.601C127.877 145.764 127.979 145.897 128.151 145.998C128.323 146.099 128.609 146.204 129.011 146.311C129.032 146.317 129.034 146.35 129.017 146.412C129.001 146.474 128.982 146.502 128.961 146.497C128.642 146.411 128.391 146.338 128.208 146.278L127.1 145.965L126.029 145.694C125.841 145.655 125.582 145.591 125.252 145.503C125.232 145.497 125.23 145.464 125.246 145.402C125.263 145.34 125.281 145.312 125.302 145.317C125.694 145.422 125.989 145.474 126.188 145.472C126.398 145.473 126.553 145.41 126.653 145.282C126.767 145.147 126.865 144.925 126.948 144.615L128.865 137.46C128.948 137.151 128.973 136.914 128.939 136.751C128.916 136.59 128.819 136.459 128.647 136.358C128.478 136.246 128.198 136.138 127.806 136.033C127.786 136.028 127.784 135.994 127.8 135.932C127.817 135.87 127.835 135.842 127.856 135.848L128.64 136.074C129.067 136.211 129.41 136.314 129.667 136.383C129.966 136.463 130.345 136.553 130.804 136.654L131.55 136.837C131.57 136.843 131.572 136.877 131.556 136.938C131.539 137 131.521 137.028 131.5 137.023C131.108 136.918 130.807 136.87 130.594 136.88C130.392 136.892 130.234 136.965 130.121 137.101C130.02 137.228 129.929 137.447 129.846 137.756L128.14 144.123L135.529 139.544L135.595 139.296C135.678 138.987 135.703 138.751 135.669 138.587C135.649 138.416 135.554 138.275 135.385 138.163C135.216 138.052 134.931 137.942 134.529 137.835C134.508 137.829 134.506 137.795 134.523 137.734C134.54 137.672 134.558 137.644 134.579 137.649L135.316 137.863C135.764 138.005 136.138 138.116 136.436 138.197C136.694 138.266 137.052 138.351 137.511 138.451L138.288 138.643C138.309 138.648 138.311 138.682 138.294 138.744C138.277 138.806 138.259 138.834 138.238 138.828C137.847 138.724 137.55 138.677 137.348 138.689C137.149 138.691 136.994 138.754 136.883 138.879C136.782 139.007 136.691 139.225 136.608 139.535L134.691 146.69C134.608 146.999 134.577 147.239 134.597 147.41C134.63 147.574 134.733 147.706 134.905 147.808C135.076 147.909 135.358 148.012 135.749 148.117ZM133.313 136.316C133.601 136.393 133.862 136.369 134.094 136.244C134.326 136.118 134.516 135.926 134.663 135.667C134.801 135.439 134.928 135.275 135.043 135.173C135.159 135.071 135.31 135.046 135.495 135.095C135.783 135.173 135.885 135.371 135.799 135.69C135.736 135.927 135.572 136.126 135.308 136.287C135.044 136.449 134.729 136.552 134.364 136.598C134.001 136.633 133.639 136.602 133.278 136.506C132.918 136.409 132.591 136.25 132.297 136.027C132.003 135.805 131.782 135.558 131.634 135.286C131.496 135.018 131.459 134.765 131.523 134.528C131.561 134.383 131.628 134.28 131.722 134.217C131.826 134.156 131.946 134.144 132.079 134.18C132.275 134.232 132.393 134.33 132.432 134.473C132.484 134.609 132.511 134.815 132.514 135.092C132.542 135.773 132.808 136.181 133.313 136.316Z" fill="#F1F1F1"/>
<rect x="14.526" y="74.9404" width="150" height="50" rx="9.5" transform="rotate(15 14.526 74.9404)" stroke="#F1F1F1" stroke-dasharray="10 7"/>
<path d="M98.4673 58.4893L98.7069 58.5609L98.726 58.4967L98.7106 58.4316L98.4673 58.4893ZM88.2773 14.7872C88.1598 14.7147 88.0058 14.7513 87.9333 14.8688L86.7527 16.7842C86.6803 16.9017 86.7168 17.0557 86.8344 17.1282C86.9519 17.2006 87.1059 17.1641 87.1784 17.0465L88.2278 15.344L89.9303 16.3934C90.0479 16.4659 90.2019 16.4293 90.2743 16.3118C90.3468 16.1943 90.3102 16.0402 90.1927 15.9678L88.2773 14.7872ZM88.026 94.337L89.3611 89.865L88.882 89.722L87.5469 94.194L88.026 94.337ZM92.0313 80.921L94.7015 71.9769L94.2224 71.8339L91.5522 80.7779L92.0313 80.921ZM97.3718 63.0329L98.7069 58.5609L98.2278 58.4178L96.8926 62.8898L97.3718 63.0329ZM98.7106 58.4316L97.4204 52.9954L96.9339 53.1109L98.2241 58.5471L98.7106 58.4316ZM94.8401 42.1231L92.2598 31.2508L91.7733 31.3662L94.3536 42.2386L94.8401 42.1231ZM89.6795 20.3784L88.3894 14.9423L87.9029 15.0577L89.1931 20.4939L89.6795 20.3784ZM98.4673 58.4893L98.9464 58.6324L98.9847 58.5041L98.9538 58.3739L98.4673 58.4893ZM88.4085 14.5744C88.1734 14.4295 87.8654 14.5026 87.7205 14.7376L85.3593 18.5684C85.2144 18.8035 85.2875 19.1115 85.5226 19.2564C85.7576 19.4013 86.0657 19.3282 86.2106 19.0931L88.3094 15.688L91.7145 17.7869C91.9496 17.9318 92.2576 17.8587 92.4025 17.6236C92.5474 17.3885 92.4743 17.0805 92.2393 16.9356L88.4085 14.5744ZM88.2655 94.4085L89.6007 89.9365L88.6424 89.6505L87.3073 94.1225L88.2655 94.4085ZM92.2709 80.9925L94.9411 72.0484L93.9829 71.7624L91.3127 80.7064L92.2709 80.9925ZM97.6113 63.1044L98.9464 58.6324L97.9882 58.3463L96.6531 62.8183L97.6113 63.1044ZM98.9538 58.3739L97.6636 52.9377L96.6907 53.1686L97.9808 58.6048L98.9538 58.3739ZM95.0834 42.0654L92.5031 31.193L91.5301 31.424L94.1104 42.2963L95.0834 42.0654ZM89.9228 20.3207L88.6326 14.8845L87.6597 15.1154L88.9498 20.5516L89.9228 20.3207Z" fill="#F1F1F1"/>
</svg>
